<?xml version="1.0" encoding="UTF-8" standalone="no"?>
<!-- Created with Inkscape (http://www.inkscape.org/) -->

<svg
   version="1.1"
   id="svg6360"
   xml:space="preserve"
   width="45px"
   height="45px"
   viewBox="0 0 682.66669 682.66669"
   xmlns="http://www.w3.org/2000/svg"
   xmlns:svg="http://www.w3.org/2000/svg"><defs
     id="defs6364"><clipPath
       clipPathUnits="userSpaceOnUse"
       id="clipPath6374"><path
         d="M 0,512 H 512 V 0 H 0 Z"
         id="path6372" /></clipPath></defs><g
     id="g6366"
     transform="matrix(1.3333333,0,0,-1.3333333,0,682.66667)"><g
       id="g6368"><g
         id="g6370"
         clip-path="url(#clipPath6374)"><g
           id="g6376"
           transform="translate(177.1123,375.0342)"><path
             d="m 0,0 v 0 c -7.977,-2.903 -16.796,1.209 -19.699,9.186 l -37.533,103.12 c -1.908,5.24 0.794,11.034 6.035,12.942 l 9.909,3.606 c 5.24,1.908 11.034,-0.794 12.941,-6.035 L 9.187,19.699 C 12.09,11.723 7.977,2.903 0,0"
             style="fill:#fcc16d;fill-opacity:1;fill-rule:nonzero;stroke:none"
             id="path6378" /></g><g
           id="g6380"
           transform="translate(177.1123,375.0342)"><path
             d="m 0,0 v 0 c -7.977,-2.903 -16.796,1.209 -19.699,9.186 l -37.533,103.12 c -1.908,5.24 0.794,11.034 6.035,12.942 l 9.909,3.606 c 5.24,1.908 11.034,-0.794 12.941,-6.035 L 9.187,19.699 C 12.09,11.723 7.977,2.903 0,0 Z"
             style="fill:none;stroke:#000000;stroke-width:15;stroke-linecap:round;stroke-linejoin:round;stroke-miterlimit:10;stroke-dasharray:none;stroke-opacity:1"
             id="path6382" /></g><g
           id="g6384"
           transform="translate(386.8662,499.5781)"><path
             d="m 0,0 c -1.06,4.259 -5.957,6.257 -9.692,3.953 -23.996,-14.794 -64.068,-15.595 -79.352,-53.063 -1.856,-4.554 -2.949,-9.138 -3.466,-13.643 -2.83,-24.711 11.84,-48.129 34.87,-57.522 l 5.019,-2.048 c 23.03,-9.394 49.893,-2.917 65.154,16.723 2.782,3.58 5.208,7.621 7.065,12.174 C 34.882,-55.956 6.802,-27.357 0,0"
             style="fill:#bcea73;fill-opacity:1;fill-rule:nonzero;stroke:none"
             id="path6386" /></g><g
           id="g6388"
           transform="translate(406.459,406.1523)"><path
             d="m 0,0 c -1.856,-4.553 -4.278,-8.592 -7.058,-12.17 -15.263,-19.641 -42.127,-26.121 -65.154,-16.727 l -5.021,2.047 c -0.898,0.367 -1.779,0.747 -2.647,1.157 16.777,-0.094 33.17,7.211 43.865,20.972 2.779,3.578 5.201,7.617 7.058,12.171 13.265,32.518 -6.125,58.344 -15.929,82.485 5.619,2.2 10.919,4.553 15.599,7.443 3.741,2.302 8.631,0.307 9.695,-3.955 C -12.789,66.068 15.285,37.474 0,0"
             style="fill:#a3e440;fill-opacity:1;fill-rule:nonzero;stroke:none"
             id="path6390" /></g><g
           id="g6392"
           transform="translate(386.8662,499.5781)"><path
             d="m 0,0 c -1.06,4.259 -5.957,6.257 -9.692,3.953 -23.996,-14.794 -64.068,-15.595 -79.352,-53.063 -1.856,-4.554 -2.949,-9.138 -3.466,-13.643 -2.83,-24.711 11.84,-48.129 34.87,-57.522 l 5.019,-2.048 c 23.03,-9.394 49.893,-2.917 65.154,16.723 2.782,3.58 5.208,7.621 7.065,12.174 C 34.882,-55.956 6.802,-27.357 0,0 Z"
             style="fill:none;stroke:#000000;stroke-width:15;stroke-linecap:round;stroke-linejoin:round;stroke-miterlimit:10;stroke-dasharray:none;stroke-opacity:1"
             id="path6394" /></g><g
           id="g6396"
           transform="translate(362.502,453.7061)"><path
             d="M 0,0 -30.766,-75.427"
             style="fill:none;stroke:#000000;stroke-width:15;stroke-linecap:round;stroke-linejoin:round;stroke-miterlimit:10;stroke-dasharray:none;stroke-opacity:1"
             id="path6398" /></g><g
           id="g6400"
           transform="translate(178.4258,189.5918)"><path
             d="m 0,0 c 0,0 57.333,-23.167 57.333,-163.577 h 40.48 C 97.813,-23.167 155.146,0 155.146,0 Z"
             style="fill:#c4e1ff;fill-opacity:1;fill-rule:nonzero;stroke:none"
             id="path6402" /></g><g
           id="g6404"
           transform="translate(333.5703,189.5947)"><path
             d="m 0,0 c 0,0 -30.143,-12.188 -46.71,-72.408 -10.1,-0.909 -20.41,-1.383 -30.863,-1.383 -10.452,0 -20.763,0.474 -30.863,1.383 C -125.004,-12.188 -155.146,0 -155.146,0 Z"
             style="fill:#8dcafc;fill-opacity:1;fill-rule:nonzero;stroke:none"
             id="path6406" /></g><g
           id="g6408"
           transform="translate(232.6924,78.4199)"><path
             d="m 0,0 c 1.938,-15.337 3.065,-32.718 3.065,-52.405 h 40.482 c 0,140.41 57.333,163.577 57.333,163.577 H -54.267 c 0,0 31.47,-12.735 47.779,-76.44"
             style="fill:none;stroke:#000000;stroke-width:15;stroke-linecap:round;stroke-linejoin:round;stroke-miterlimit:10;stroke-dasharray:none;stroke-opacity:1"
             id="path6410" /></g><g
           id="g6412"
           transform="translate(92.7754,307.4453)"><path
             d="m 0,0 c -5.965,0 -10.597,-5.142 -10.054,-11.082 8.095,-88.586 82.58,-157.975 173.278,-157.975 90.696,0 165.181,69.389 173.277,157.974 C 337.044,-5.142 332.412,0 326.446,0 Z"
             style="fill:#eaf6ff;fill-opacity:1;fill-rule:nonzero;stroke:none"
             id="path6414" /></g><g
           id="g6416"
           transform="translate(429.2793,296.3652)"><path
             d="m 0,0 c -8.098,-88.585 -82.587,-157.974 -173.281,-157.974 -6.14,0 -12.208,0.313 -18.176,0.939 82.294,8.543 147.554,74.448 155.106,157.035 0.536,5.937 -4.088,11.077 -10.056,11.077 h 36.35 C -4.089,11.077 0.536,5.937 0,0"
             style="fill:#c4e1ff;fill-opacity:1;fill-rule:nonzero;stroke:none"
             id="path6418" /></g><g
           id="g6420"
           transform="translate(263.1318,337.1221)"><path
             d="m 0,0 c 0,-42.793 -34.69,-77.482 -77.482,-77.482 -42.793,0 -77.484,34.689 -77.484,77.482 0,42.792 34.691,77.482 77.484,77.482 C -34.69,77.482 0,42.792 0,0"
             style="fill:#ac8380;fill-opacity:1;fill-rule:nonzero;stroke:none"
             id="path6422" /></g><g
           id="g6424"
           transform="translate(263.1279,337.1182)"><path
             d="m 0,0 c 0,-3.584 -0.242,-7.098 -0.717,-10.552 -6.977,-2.059 -14.358,-3.17 -22.003,-3.17 -42.792,0 -77.477,34.695 -77.477,77.488 0,3.585 0.242,7.098 0.717,10.551 6.977,2.06 14.359,3.171 22.002,3.171 C -34.685,77.488 0,42.793 0,0"
             style="fill:#96756f;fill-opacity:1;fill-rule:nonzero;stroke:none"
             id="path6426" /></g><g
           id="g6428"
           transform="translate(263.127,337.1211)"><path
             d="m 0,0 c 0,-42.793 -34.685,-77.478 -77.478,-77.478 -5.896,0 -11.642,0.657 -17.166,1.919 34.534,7.795 60.313,38.663 60.313,75.559 0,36.896 -25.779,67.764 -60.313,75.569 5.524,1.263 11.27,1.918 17.166,1.918 C -34.685,77.487 0,42.793 0,0"
             style="fill:#96756f;fill-opacity:1;fill-rule:nonzero;stroke:none"
             id="path6430" /></g><g
           id="g6432"
           transform="translate(257.2402,307.4502)"><path
             d="m 0,0 c -0.07,-0.19 -0.15,-0.37 -0.23,-0.561 -11.78,-27.769 -39.291,-47.25 -71.36,-47.25 -32.28,0 -59.95,19.741 -71.59,47.811 z"
             style="fill:#d6a59d;fill-opacity:1;fill-rule:nonzero;stroke:none"
             id="path6434" /></g><g
           id="g6436"
           transform="translate(257.2402,307.4502)"><path
             d="m 0,0 c -11.641,-28.07 -39.311,-47.811 -71.59,-47.811 -5.9,0 -11.64,0.661 -17.17,1.921 24.699,5.579 44.92,22.95 54.43,45.89 z"
             style="fill:#ac8380;fill-opacity:1;fill-rule:nonzero;stroke:none"
             id="path6438" /></g><g
           id="g6440"
           transform="translate(263.1318,337.1221)"><path
             d="m 0,0 c 0,-42.793 -34.69,-77.482 -77.482,-77.482 -42.793,0 -77.484,34.689 -77.484,77.482 0,42.792 34.691,77.482 77.484,77.482 C -34.69,77.482 0,42.792 0,0 Z"
             style="fill:none;stroke:#000000;stroke-width:15;stroke-linecap:round;stroke-linejoin:round;stroke-miterlimit:10;stroke-dasharray:none;stroke-opacity:1"
             id="path6442" /></g><g
           id="g6444"
           transform="translate(323.9521,425.1133)"><path
             d="m 0,0 c 0,-42.792 -34.69,-77.482 -77.482,-77.482 -42.793,0 -77.483,34.69 -77.483,77.482 0,42.793 34.69,77.482 77.483,77.482 C -34.69,77.482 0,42.793 0,0"
             style="fill:#fee7c9;fill-opacity:1;fill-rule:nonzero;stroke:none"
             id="path6446" /></g><g
           id="g6448"
           transform="translate(323.9482,425.1133)"><path
             d="m 0,0 c 0,-42.793 -34.686,-77.479 -77.479,-77.479 -5.896,0 -11.641,0.658 -17.165,1.919 34.534,7.795 60.312,38.664 60.312,75.56 0,36.896 -25.778,67.764 -60.312,75.568 5.524,1.263 11.269,1.919 17.165,1.919 C -34.686,77.487 0,42.793 0,0"
             style="fill:#ffd496;fill-opacity:1;fill-rule:nonzero;stroke:none"
             id="path6450" /></g><g
           id="g6452"
           transform="translate(187.6875,475.5625)"><path
             d="m 0,0 c -11.646,-13.558 -18.7,-31.174 -18.7,-50.449 0,-42.792 34.69,-77.483 77.482,-77.483 42.792,0 77.483,34.691 77.483,77.483 0,42.793 -34.691,77.482 -77.483,77.482 -10.732,0 -20.954,-2.183 -30.248,-6.129"
             style="fill:none;stroke:#000000;stroke-width:15;stroke-linecap:round;stroke-linejoin:round;stroke-miterlimit:10;stroke-dasharray:none;stroke-opacity:1"
             id="path6454" /></g><g
           id="g6456"
           transform="translate(405.8506,337.1221)"><path
             d="m 0,0 c 0,-42.793 -34.69,-77.482 -77.482,-77.482 -42.793,0 -77.483,34.689 -77.483,77.482 0,42.792 34.69,77.482 77.483,77.482 C -34.69,77.482 0,42.792 0,0"
             style="fill:#fc9aa1;fill-opacity:1;fill-rule:nonzero;stroke:none"
             id="path6458" /></g><g
           id="g6460"
           transform="translate(405.8457,337.1211)"><path
             d="m 0,0 c 0,-42.793 -34.685,-77.478 -77.478,-77.478 -5.896,0 -11.641,0.657 -17.165,1.919 34.534,7.795 60.312,38.663 60.312,75.559 0,36.896 -25.778,67.764 -60.312,75.569 5.524,1.263 11.269,1.918 17.165,1.918 C -34.685,77.487 0,42.793 0,0"
             style="fill:#fb8189;fill-opacity:1;fill-rule:nonzero;stroke:none"
             id="path6462" /></g><g
           id="g6464"
           transform="translate(399.96,307.4502)"><path
             d="m 0,0 c -11.64,-28.07 -39.31,-47.811 -71.59,-47.811 -32.07,0 -59.58,19.481 -71.36,47.25 -0.08,0.191 -0.16,0.371 -0.23,0.561 z"
             style="fill:#fcb5ba;fill-opacity:1;fill-rule:nonzero;stroke:none"
             id="path6466" /></g><g
           id="g6468"
           transform="translate(399.96,307.4502)"><path
             d="m 0,0 c -11.64,-28.07 -39.31,-47.811 -71.59,-47.811 -5.9,0 -11.639,0.661 -17.17,1.921 24.7,5.579 44.91,22.95 54.42,45.89 z"
             style="fill:#fc9aa1;fill-opacity:1;fill-rule:nonzero;stroke:none"
             id="path6470" /></g><g
           id="g6472"
           transform="translate(405.8506,337.1221)"><path
             d="m 0,0 c 0,-42.793 -34.69,-77.482 -77.482,-77.482 -42.793,0 -77.483,34.689 -77.483,77.482 0,42.792 34.69,77.482 77.483,77.482 C -34.69,77.482 0,42.792 0,0 Z"
             style="fill:none;stroke:#000000;stroke-width:15;stroke-linecap:round;stroke-linejoin:round;stroke-miterlimit:10;stroke-dasharray:none;stroke-opacity:1"
             id="path6474" /></g><g
           id="g6476"
           transform="translate(87.2725,269.7363)"><path
             d="m 0,0 c 19.024,-75.475 87.344,-131.348 168.727,-131.348 81.381,0 149.701,55.873 168.725,131.348 z"
             style="fill:#96756f;fill-opacity:1;fill-rule:nonzero;stroke:none"
             id="path6478" /></g><g
           id="g6480"
           transform="translate(388.3848,269.7363)"><path
             d="m 0,0 c -17.594,-69.78 -77.333,-122.805 -150.562,-130.406 5.967,-0.626 12.036,-0.939 18.175,-0.939 81.38,0 149.7,55.872 168.729,131.345 z"
             style="fill:#80635e;fill-opacity:1;fill-rule:nonzero;stroke:none"
             id="path6482" /></g><g
           id="g6484"
           transform="translate(125.2354,197.6045)"><path
             d="m 0,0 c 31.887,-36.302 78.646,-59.216 130.764,-59.216 52.117,0 98.876,22.914 130.762,59.216 z"
             style="fill:#fb4a59;fill-opacity:1;fill-rule:nonzero;stroke:none"
             id="path6486" /></g><g
           id="g6488"
           transform="translate(350.4102,197.6045)"><path
             d="m 0,0 c -28.135,-32.023 -67.842,-53.63 -112.588,-58.274 5.968,-0.626 12.036,-0.939 18.176,-0.939 52.114,0 98.873,22.913 130.761,59.213 z"
             style="fill:#f82f41;fill-opacity:1;fill-rule:nonzero;stroke:none"
             id="path6490" /></g><g
           id="g6492"
           transform="translate(155.1992,307.4453)"><path
             d="m 0,0 h -62.424 c -5.965,0 -10.597,-5.142 -10.054,-11.082 8.095,-88.586 82.581,-157.975 173.278,-157.975 90.696,0 165.181,69.389 173.277,157.975 C 274.62,-5.142 269.988,0 264.022,0 H 35.567"
             style="fill:none;stroke:#000000;stroke-width:15;stroke-linecap:round;stroke-linejoin:round;stroke-miterlimit:10;stroke-dasharray:none;stroke-opacity:1"
             id="path6494" /></g><g
           id="g6496"
           transform="translate(386.7617,197.6045)"><path
             d="M 0,0 H -261.526"
             style="fill:none;stroke:#000000;stroke-width:15;stroke-linecap:round;stroke-linejoin:round;stroke-miterlimit:10;stroke-dasharray:none;stroke-opacity:1"
             id="path6498" /></g><g
           id="g6500"
           transform="translate(424.7246,269.7363)"><path
             d="M 0,0 H -337.452"
             style="fill:none;stroke:#000000;stroke-width:15;stroke-linecap:round;stroke-linejoin:round;stroke-miterlimit:10;stroke-dasharray:none;stroke-opacity:1"
             id="path6502" /></g><g
           id="g6504"
           transform="translate(309.2832,7.5)"><path
             d="m 0,0 h -104.55 c -8.282,0 -14.995,6.714 -14.995,14.995 0,8.282 6.713,14.996 14.995,14.996 H 0 c 8.282,0 14.996,-6.714 14.996,-14.996 C 14.996,6.714 8.282,0 0,0"
             style="fill:#eaf6ff;fill-opacity:1;fill-rule:nonzero;stroke:none"
             id="path6506" /></g><g
           id="g6508"
           transform="translate(309.2832,7.5)"><path
             d="m 0,0 h -104.55 c -8.282,0 -14.995,6.714 -14.995,14.995 0,8.282 6.713,14.996 14.995,14.996 H 0 c 8.282,0 14.996,-6.714 14.996,-14.996 C 14.996,6.714 8.282,0 0,0 Z"
             style="fill:none;stroke:#000000;stroke-width:15;stroke-linecap:round;stroke-linejoin:round;stroke-miterlimit:10;stroke-dasharray:none;stroke-opacity:1"
             id="path6510" /></g><g
           id="g6512"
           transform="translate(225.7402,466.1152)"><path
             d="M 0,0 5.378,4.66"
             style="fill:none;stroke:#000000;stroke-width:15;stroke-linecap:round;stroke-linejoin:round;stroke-miterlimit:10;stroke-dasharray:none;stroke-opacity:1"
             id="path6514" /></g><g
           id="g6516"
           transform="translate(266.9229,466.3682)"><path
             d="M 0,0 7.099,-0.507"
             style="fill:none;stroke:#000000;stroke-width:15;stroke-linecap:round;stroke-linejoin:round;stroke-miterlimit:10;stroke-dasharray:none;stroke-opacity:1"
             id="path6518" /></g><g
           id="g6520"
           transform="translate(252.7646,440.6758)"><path
             d="M 0,0 -4.757,4.123"
             style="fill:none;stroke:#000000;stroke-width:15;stroke-linecap:round;stroke-linejoin:round;stroke-miterlimit:10;stroke-dasharray:none;stroke-opacity:1"
             id="path6522" /></g><g
           id="g6524"
           transform="translate(394.8535,35.1094)"><path
             d="m 0,0 c -37.565,-37.565 -105.689,-30.348 -120.041,-15.997 -14.351,14.351 -21.568,82.476 15.997,120.042 37.565,37.565 63.52,29.02 98.293,-5.752 C 29.021,63.52 37.566,37.565 0,0"
             style="fill:#fb4a59;fill-opacity:1;fill-rule:nonzero;stroke:none"
             id="path6526" /></g><g
           id="g6528"
           transform="translate(385.6816,72.2119)"><path
             d="m 0,0 c -2.206,-5.696 -6.729,-14.021 -15.702,-20.897 -1.752,-1.346 -4.272,-0.923 -5.453,0.946 -4.295,6.862 -12.894,23.909 -7.894,44.134 0.689,2.754 -1.784,5.225 -4.538,4.537 -20.224,-4.999 -37.279,3.607 -44.133,7.894 -1.87,1.182 -2.293,3.7 -0.947,5.453 6.877,8.974 15.202,13.496 20.897,15.703 2.629,1.016 3.184,4.466 1.048,6.321 -8.864,7.706 -13.081,15.866 -15.012,21.053 26.17,14.387 47.958,3.239 75.153,-23.956 C 30.613,33.993 41.763,12.204 27.375,-13.966 22.187,-12.033 14.027,-7.816 6.321,1.048 4.467,3.184 1.017,2.628 0,0"
             style="fill:#f82f41;fill-opacity:1;fill-rule:nonzero;stroke:none"
             id="path6530" /></g><g
           id="g6532"
           transform="translate(394.8506,35.1123)"><path
             d="m 0,0 c -37.569,-37.569 -105.689,-30.349 -120.037,-16 -3.733,3.732 -6.987,11.117 -9.092,20.654 22.431,-10.945 80.005,-12.956 113.411,20.451 C 7.237,48.06 12.972,66.673 6.032,85.613 30.442,56.838 32.867,32.866 0,0"
             style="fill:#f82f41;fill-opacity:1;fill-rule:nonzero;stroke:none"
             id="path6534" /></g><g
           id="g6536"
           transform="translate(394.8535,35.1094)"><path
             d="m 0,0 c -37.565,-37.565 -105.689,-30.348 -120.041,-15.997 -14.351,14.351 -21.568,82.476 15.997,120.042 37.565,37.565 63.52,29.02 98.293,-5.752 C 29.021,63.52 37.566,37.565 0,0 Z"
             style="fill:none;stroke:#000000;stroke-width:15;stroke-linecap:round;stroke-linejoin:round;stroke-miterlimit:10;stroke-dasharray:none;stroke-opacity:1"
             id="path6538" /></g><g
           id="g6540"
           transform="translate(370.999,111.2676)"><path
             d="m 0,0 c -4.444,-17.934 3.19,-33.053 6.998,-39.136 1.038,-1.659 3.28,-2.032 4.833,-0.841 7.953,6.104 11.965,13.479 13.922,18.528 0.906,2.338 3.965,2.83 5.61,0.936 7.522,-8.658 15.541,-12.31 19.99,-13.773 1.875,-0.617 3.899,0.524 4.271,2.463 5.461,28.467 -20.886,46.529 -31.826,52.697 -2.908,1.64 -5.316,4.047 -6.955,6.955 -6.168,10.941 -24.231,37.288 -52.697,31.826 -1.939,-0.371 -3.081,-2.396 -2.463,-4.271 1.463,-4.448 5.115,-12.468 13.773,-19.989 1.894,-1.645 1.401,-4.705 -0.936,-5.611 -5.049,-1.957 -12.425,-5.969 -18.528,-13.922 -1.191,-1.552 -0.819,-3.794 0.841,-4.833 C -37.084,7.222 -21.965,-0.413 -4.031,4.031 -1.586,4.637 0.605,2.445 0,0"
             style="fill:#1ca56f;fill-opacity:1;fill-rule:nonzero;stroke:none"
             id="path6542" /></g><g
           id="g6544"
           transform="translate(426.624,79.4395)"><path
             d="m 0,0 c -0.376,-1.936 -2.401,-3.075 -4.271,-2.456 -4.448,1.461 -12.469,5.112 -19.993,13.775 -1.637,1.892 -4.703,1.394 -5.609,-0.94 -1.959,-5.046 -5.964,-12.426 -13.919,-18.522 -1.561,-1.195 -3.795,-0.83 -4.836,0.83 -2.776,4.437 -7.601,13.709 -8.254,25.359 5.898,5.477 9.084,11.529 10.766,15.855 0.907,2.346 3.972,2.832 5.609,0.941 7.525,-8.663 15.546,-12.315 19.994,-13.776 1.869,-0.619 3.895,0.521 4.271,2.468 1.327,6.893 0.785,13.178 -0.963,18.82 C -6.661,33.071 3.606,18.799 0,0"
             style="fill:#148f5f;fill-opacity:1;fill-rule:nonzero;stroke:none"
             id="path6546" /></g><g
           id="g6548"
           transform="translate(370.999,111.2676)"><path
             d="m 0,0 c -4.444,-17.934 3.19,-33.053 6.998,-39.136 1.038,-1.659 3.28,-2.032 4.833,-0.841 7.953,6.104 11.965,13.479 13.922,18.528 0.906,2.338 3.965,2.83 5.61,0.936 7.522,-8.658 15.541,-12.31 19.99,-13.773 1.875,-0.617 3.899,0.524 4.271,2.463 5.461,28.467 -20.886,46.529 -31.826,52.697 -2.908,1.64 -5.316,4.047 -6.955,6.955 -6.168,10.941 -24.231,37.288 -52.697,31.826 -1.939,-0.371 -3.081,-2.396 -2.463,-4.271 1.463,-4.448 5.115,-12.468 13.773,-19.989 1.894,-1.645 1.401,-4.705 -0.936,-5.611 -5.049,-1.957 -12.425,-5.969 -18.528,-13.922 -1.191,-1.552 -0.819,-3.794 0.841,-4.833 C -37.084,7.222 -21.965,-0.413 -4.031,4.031 -1.586,4.637 0.605,2.445 0,0 Z"
             style="fill:none;stroke:#000000;stroke-width:15;stroke-linecap:round;stroke-linejoin:round;stroke-miterlimit:10;stroke-dasharray:none;stroke-opacity:1"
             id="path6550" /></g><g
           id="g6552"
           transform="translate(308.9277,105.5459)"><path
             d="M 0,0 -1.297,-1.297"
             style="fill:none;stroke:#000000;stroke-width:15;stroke-linecap:round;stroke-linejoin:round;stroke-miterlimit:10;stroke-dasharray:none;stroke-opacity:1"
             id="path6554" /></g><g
           id="g6556"
           transform="translate(335.0869,79.3867)"><path
             d="M 0,0 -1.297,-1.297"
             style="fill:none;stroke:#000000;stroke-width:15;stroke-linecap:round;stroke-linejoin:round;stroke-miterlimit:10;stroke-dasharray:none;stroke-opacity:1"
             id="path6558" /></g><g
           id="g6560"
           transform="translate(361.2461,53.2275)"><path
             d="M 0,0 -1.297,-1.297"
             style="fill:none;stroke:#000000;stroke-width:15;stroke-linecap:round;stroke-linejoin:round;stroke-miterlimit:10;stroke-dasharray:none;stroke-opacity:1"
             id="path6562" /></g><g
           id="g6564"
           transform="translate(298.6309,69.0898)"><path
             d="M 0,0 -1.298,-1.298"
             style="fill:none;stroke:#000000;stroke-width:15;stroke-linecap:round;stroke-linejoin:round;stroke-miterlimit:10;stroke-dasharray:none;stroke-opacity:1"
             id="path6566" /></g><g
           id="g6568"
           transform="translate(324.79,42.9307)"><path
             d="M 0,0 -1.298,-1.298"
             style="fill:none;stroke:#000000;stroke-width:15;stroke-linecap:round;stroke-linejoin:round;stroke-miterlimit:10;stroke-dasharray:none;stroke-opacity:1"
             id="path6570" /></g></g></g></g></svg>
