<svg height="45px" viewBox="0 0 512 512" width="45px" xmlns="http://www.w3.org/2000/svg"><g id="_4._Kebab" data-name="4. Kebab"><path d="m118 80h84a30 30 0 0 1 30 30v2a0 0 0 0 1 0 0h-144a0 0 0 0 1 0 0v-2a30 30 0 0 1 30-30z" fill="#a6806f"/><path d="m232 120h-144a8 8 0 0 1 -8-8v-2a38 38 0 0 1 38-38h84a38 38 0 0 1 38 38v2a8 8 0 0 1 -8 8zm-135.17-16h126.34a22 22 0 0 0 -21.17-16h-84a22 22 0 0 0 -21.17 16z"/><path d="m220.72 448h-121.44a30 30 0 0 1 -29.87-27.16l-24.72-259.57a45 45 0 0 1 44.8-49.27h141a45 45 0 0 1 44.8 49.27l-24.7 259.57a30 30 0 0 1 -29.87 27.16z" fill="#bc6857"/><path d="m250.59 396.84a30 30 0 0 1 -29.87 27.16h-121.44a30 30 0 0 1 -29.87-27.16l-23.8-249.91a45.23 45.23 0 0 0 -.92 14.34l24.72 259.57a30 30 0 0 0 29.87 27.16h121.44a30 30 0 0 0 29.87-27.16l24.72-259.57a45.23 45.23 0 0 0 -.92-14.34z" fill="#a14939"/><path d="m220.72 456h-121.44a37.85 37.85 0 0 1 -37.83-34.4l-11.89-124.84a8 8 0 0 1 15.93-1.52l11.89 124.85a21.9 21.9 0 0 0 21.9 19.91h121.44a21.9 21.9 0 0 0 21.9-19.91l24.72-259.58a37 37 0 0 0 -36.83-40.51h-141a37 37 0 0 0 -36.83 40.51l9.78 102.73a8 8 0 0 1 -15.93 1.52l-9.8-102.76a53 53 0 0 1 52.76-58h141a53 53 0 0 1 52.76 58l-24.7 259.6a37.85 37.85 0 0 1 -37.83 34.4z"/><path d="m160 88a8 8 0 0 1 -8-8v-24a8 8 0 0 1 16 0v24a8 8 0 0 1 -8 8z"/><path d="m160 488a24 24 0 1 1 24-24 24 24 0 0 1 -24 24zm0-32a8 8 0 1 0 8 8 8 8 0 0 0 -8-8z"/><path d="m160 64a32 32 0 1 1 32-32 32 32 0 0 1 -32 32zm0-48a16 16 0 1 0 16 16 16 16 0 0 0 -16-16z"/><path d="m160 512a8 8 0 0 1 -8-8v-16a8 8 0 0 1 16 0v16a8 8 0 0 1 -8 8z"/><path d="m361.29 247.49 80.57 138.23-27.64 16.12a32 32 0 0 0 -43.76-11.53c-.13.07-50.83-87.2-50.76-87.07a146 146 0 0 1 -18.29-94.92 80 80 0 0 1 59.88 39.17z" fill="#dcdcdc"/><path d="m339.87 301.41a146 146 0 0 1 -19.11-88.34 79.64 79.64 0 0 0 -19.35-4.75c0 2.82-9.43 47.37 18.29 94.92 51.81 88.88 50.65 87.07 50.76 87.07a31.82 31.82 0 0 1 18.76-4.24z" fill="#bbb"/><path d="m407.31 405.86a24 24 0 0 0 -32.83-8.64 8 8 0 0 1 -10.94-2.89l-50.75-87.06a154.65 154.65 0 0 1 -19.3-100.13 8 8 0 0 1 8.84-6.77 88.43 88.43 0 0 1 65.87 43.09l38.71 66.42a8 8 0 1 1 -13.82 8.06l-38.72-66.42a72.41 72.41 0 0 0 -46-33.89 138.49 138.49 0 0 0 18.25 81.58l47.12 80.85a40.14 40.14 0 0 1 42.67 11.24l14.51-8.46-20.29-34.84a8 8 0 1 1 13.82-8l24.32 41.72a8 8 0 0 1 -2.88 10.94l-27.64 16.12a8 8 0 0 1 -10.94-2.92z"/><path d="m496 474-36.32 21.71-52.37-89.84 34.55-20.15z" fill="#4c5657"/><path d="m452.77 499.74-52.38-89.85a8 8 0 0 1 2.89-10.89l34.55-20.14a8 8 0 0 1 10.85 2.73l54.14 88.28a8 8 0 0 1 -2.71 11.05l-36.32 21.71a8 8 0 0 1 -11.02-2.89zm-34.52-91 44.27 75.95 22.48-13.4-45.82-74.72z"/><path d="m273.91 176-3.05 32h-62.86a16 16 0 0 1 0-32z" fill="#a14939"/><path d="m270.86 216h-62.86a24 24 0 0 1 0-48h65.91a8 8 0 0 1 8 8.76l-3.05 32a8 8 0 0 1 -8 7.24zm-62.86-32a8 8 0 0 0 0 16h55.59l1.52-16z"/><path d="m262.48 296-3.05 32h-59.43a16 16 0 0 1 0-32z" fill="#a14939"/><path d="m259.43 336h-59.43a24 24 0 0 1 0-48h62.48a8 8 0 0 1 8 8.76l-3.05 32a8 8 0 0 1 -8 7.24zm-59.43-32a8 8 0 0 0 0 16h52.16l1.52-16z"/><path d="m120 384a16 16 0 0 1 -16 16h-36.57l-3.05-32h39.62a16 16 0 0 1 16 16z" fill="#a14939"/><path d="m104 408h-36.57a8 8 0 0 1 -8-7.24l-3-32a8 8 0 0 1 8-8.76h39.57a24 24 0 0 1 0 48zm-29.3-16h29.3a8 8 0 0 0 0-16h-30.82z"/><path d="m120 248a16 16 0 0 1 -16 16h-49.53l-3-32h52.53a16 16 0 0 1 16 16z" fill="#a14939"/><path d="m104 272h-49.53a8 8 0 0 1 -8-7.24l-3-32a8 8 0 0 1 8-8.76h52.53a24 24 0 0 1 0 48zm-42.25-16h42.25a8 8 0 0 0 0-16h-43.77z"/><path d="m176 152h-32a8 8 0 0 1 0-16h32a8 8 0 0 1 0 16z"/><path d="m128 200h-32a8 8 0 0 1 0-16h32a8 8 0 0 1 0 16z"/><path d="m200 256h-32a8 8 0 0 1 0-16h32a8 8 0 0 1 0 16z"/><path d="m192 392h-32a8 8 0 0 1 0-16h32a8 8 0 0 1 0 16z"/><path d="m136 320h-32a8 8 0 0 1 0-16h32a8 8 0 0 1 0 16z"/><path d="m32 96a8 8 0 0 1 -7.15-11.58l2.95-5.88a7.68 7.68 0 0 0 -1.45-8.88 23.7 23.7 0 0 1 -4.45-27.36l2.94-5.88a8 8 0 1 1 14.32 7.16l-2.95 5.88a7.68 7.68 0 0 0 1.45 8.88 23.7 23.7 0 0 1 4.44 27.36l-2.94 5.88a8 8 0 0 1 -7.16 4.42z"/><path d="m72 64a8 8 0 0 1 -7.15-11.58l3-5.88a7.68 7.68 0 0 0 -1.45-8.88 23.7 23.7 0 0 1 -4.5-27.36l2.94-5.88a8 8 0 0 1 14.32 7.16l-3 5.88a7.68 7.68 0 0 0 1.45 8.88 23.7 23.7 0 0 1 4.49 27.36l-2.94 5.88a8 8 0 0 1 -7.16 4.42z"/></g></svg>
