<?xml version="1.0" encoding="UTF-8"?>
<!-- Generator: Adobe Illustrator 24.3.0, SVG Export Plug-In . SVG Version: 6.00 Build 0)  -->
<svg xmlns="http://www.w3.org/2000/svg" xmlns:xlink="http://www.w3.org/1999/xlink" version="1.1" id="Capa_1" x="0px" y="0px" viewBox="0 0 383.705 383.705" style="enable-background:new 0 0 383.705 383.705;" xml:space="preserve" width="512" height="512">
<path style="fill-rule:evenodd;clip-rule:evenodd;" d="M46.062,53.567l6.504-4.816c3.552-2.616,4.305-7.631,1.677-11.189  c-2.627-3.549-7.634-4.3-11.186-1.675l-6.513,4.807c-3.543,2.625-4.296,7.641-1.677,11.189  C37.495,55.432,42.51,56.183,46.062,53.567z"/>
<path style="fill-rule:evenodd;clip-rule:evenodd;" d="M72.695,37.815c35.294-13.76,79.736-5.83,112.24,50.921  c1.481,2.589,4.279,4.137,7.257,4.019c2.978-0.118,5.648-1.883,6.924-4.581c14.138-30.01,33.907-46.377,55.08-52.931  c31.657-9.795,65.941,2.118,87.319,21.102c14.112,12.529,22.448,30.145,25.272,50.695c4.45,32.408-4.681,71.878-26.933,111.393  c-0.043,0.072-0.077,0.136-0.111,0.208c-25.914,49.319-91.82,98.366-147.868,132.005C135.829,317.008,69.922,267.96,44.008,218.642  c-0.034-0.073-0.068-0.136-0.111-0.208c-32.23-57.24-37.194-114.389-12.735-149.486c2.525-3.621,1.635-8.618-1.986-11.144  c-3.62-2.526-8.609-1.629-11.134,1.992C-9.181,98.839-5.903,162.597,29.956,226.282c27.669,52.56,98.564,105.463,157.847,140.56  c2.508,1.494,5.64,1.494,8.147,0c59.291-35.097,130.178-88.001,157.898-140.651c40.917-72.738,39.239-145.449-1.712-181.813  c-25.11-22.297-65.478-35.93-102.672-24.415c-21.575,6.672-42.252,21.726-58.153,48.739C154.092,13.572,105.49,7.86,66.884,22.905  c-4.108,1.611-6.145,6.246-4.544,10.365C63.94,37.381,68.587,39.417,72.695,37.815z"/>

</svg>
