<svg height="45px" viewBox="0 -44 512.00032 512" width="45px" xmlns="http://www.w3.org/2000/svg"><path d="m183.996094 16c0 4.417969 3.582031 8 8 8h104v16h-104c-4.417969 0-8 3.582031-8 8s3.582031 8 8 8h104v16h-104c-4.417969 0-8 3.582031-8 8s3.582031 8 8 8h104v16h-104c-4.417969 0-8 3.582031-8 8 0 4.421875 3.582031 8.003906 8 8.003906h104c25.367187 0 46.78125-16.875 53.667968-40.003906h162.335938v-32h-162.335938c-6.886718-23.128906-28.300781-40-53.667968-40h-104.003906c-4.417969 0-7.996094 3.582031-7.996094 8zm0 0" fill="#e5e4e0"/><path d="m512 64h-170.335938c-6.148437 20.652344-23.882812 36.304688-45.667968 39.421875v.578125h-104.003906c-4.417969 0-8 3.582031-8 8 0 4.421875 3.582031 8.003906 8 8.003906h104.003906c25.367187 0 46.78125-16.875 53.667968-40.003906h162.335938zm0 0" fill="#d8d6d0"/><g fill="#fac480"><path d="m207.996094 192.003906c-4.417969 0-8-3.582031-8-8v-176.003906c0-4.417969 3.582031-8 8-8 4.417968 0 8 3.582031 8 8v176.003906c0 4.417969-3.582032 8-8 8zm0 0"/><path d="m239.996094 184.003906c-4.417969 0-8-3.582031-8-8v-136.003906c0-4.417969 3.582031-8 8-8 4.417968 0 8 3.582031 8 8v136.003906c0 4.417969-3.582032 8-8 8zm0 0"/><path d="m271.996094 184.003906c-4.417969 0-8-3.582031-8-8v-104.003906c0-4.417969 3.582031-8 8-8 4.417968 0 8 3.582031 8 8v104.003906c0 4.417969-3.582032 8-8 8zm0 0"/></g><path d="m351.996094 272.003906c0 53.019532-42.980469 96.003906-96 96.003906-53.019532 0-96-42.984374-96-96.003906 0-53.019531 42.980468-96 96-96 53.019531 0 96 42.980469 96 96zm0 0" fill="#ffe477"/><path d="m255.996094 376.007812c-57.347656 0-104.003906-46.65625-104.003906-104.003906s46.65625-104 104.003906-104 104 46.652344 104 104-46.65625 104.003906-104 104.003906zm0-192.003906c-48.523438 0-88 39.476563-88 88 0 48.523438 39.476562 88 88 88 48.523437 0 88-39.476562 88-88 0-48.523437-39.476563-88-88-88zm0 0" fill="#fac480"/><path d="m319.996094 272.003906c0 35.347656-28.652344 64-64 64s-64-28.652344-64-64 28.652344-64 64-64 64 28.652344 64 64zm0 0" fill="#ffeda4"/><path d="m255.996094 344.003906c-39.703125 0-72-32.296875-72-72 0-39.699218 32.296875-72 72-72s72 32.300782 72 72c0 39.703125-32.296875 72-72 72zm0-128c-30.878906 0-56 25.121094-56 56s25.121094 56 56 56 56-25.121094 56-56-25.121094-56-56-56zm0 0" fill="#fac480"/><path d="m287.996094 272.003906c0 17.675782-14.328125 32-32 32s-32-14.324218-32-32c0-17.671875 14.328125-32 32-32s32 14.328125 32 32zm0 0" fill="#fff6d2"/><path d="m255.996094 312.003906c-22.058594 0-40-17.941406-40-40 0-22.054687 17.941406-40 40-40 22.054687 0 40 17.945313 40 40 0 22.058594-17.945313 40-40 40zm0-64c-13.234375 0-24 10.765625-24 24s10.765625 24 24 24 24-10.765625 24-24-10.765625-24-24-24zm0 0" fill="#fac480"/><path d="m335.996094 264.003906c32.636718 0 59.546875 24.433594 63.484375 56h32.183593c-4.066406-49.273437-45.34375-88-95.667968-88-50.324219 0-91.601563 38.726563-95.667969 88h32.183594c3.9375-31.566406 30.851562-56 63.484375-56zm0 0" fill="#ffeda4"/><path d="m431.664062 328.003906h-32.183593c-4.035157 0-7.4375-3.003906-7.9375-7.007812-3.484375-27.929688-27.363281-48.992188-55.546875-48.992188-28.179688 0-52.0625 21.0625-55.546875 48.992188-.5 4.003906-3.902344 7.007812-7.9375 7.007812h-32.179688c-2.238281 0-4.371093-.933594-5.886719-2.578125-1.515624-1.648437-2.273437-3.851562-2.089843-6.078125 2.140625-25.925781 13.867187-49.964844 33.027343-67.691406 19.269532-17.832031 44.347657-27.652344 70.613282-27.652344 26.269531 0 51.347656 9.820313 70.613281 27.652344 19.160156 17.726562 30.890625 41.769531 33.027344 67.691406.183593 2.230469-.574219 4.433594-2.089844 6.078125-1.511719 1.644531-3.644531 2.578125-5.882813 2.578125zm-25.472656-16h16.34375c-7.59375-41.011718-44.039062-72-86.539062-72s-78.941406 30.988282-86.539063 72h16.34375c7.34375-32.378906 36.359375-56 70.195313-56 33.839844 0 62.855468 23.621094 70.195312 56zm0 0" fill="#fac480"/><path d="m335.996094 264.003906c-32.632813 0-59.546875 24.433594-63.484375 56h32.492187c3.550782-13.800781 16.082032-24 30.992188-24 14.914062 0 27.441406 10.199219 30.992187 24h32.496094c-3.941406-31.566406-30.851563-56-63.488281-56zm0 0" fill="#fff6d2"/><path d="m399.480469 328.003906h-32.492188c-3.648437 0-6.835937-2.46875-7.746093-6.003906-2.726563-10.597656-12.285157-17.996094-23.246094-17.996094-10.957032 0-20.515625 7.398438-23.246094 17.996094-.90625 3.535156-4.09375 6.003906-7.746094 6.003906h-32.492187c-2.292969 0-4.480469-.984375-5.996094-2.703125-1.519531-1.71875-2.226563-4.007812-1.941406-6.285156 4.480469-35.921875 35.1875-63.011719 71.421875-63.011719 36.238281 0 66.941406 27.089844 71.425781 63.011719.285156 2.277344-.421875 4.566406-1.941406 6.285156-1.515625 1.71875-3.703125 2.703125-6 2.703125zm-26.808594-16h16.988281c-6.933594-23.335937-28.597656-40-53.664062-40s-46.730469 16.664063-53.664063 40h16.988281c6.265626-14.394531 20.5625-24 36.675782-24 16.113281 0 30.410156 9.605469 36.675781 24zm0 0" fill="#fac480"/><path d="m335.996094 296.003906c-14.910156 0-27.4375 10.199219-30.992188 24h61.984375c-3.550781-13.800781-16.082031-24-30.992187-24zm0 0" fill="#fffae8"/><path d="m366.988281 328.003906h-61.984375c-2.472656 0-4.808594-1.144531-6.324218-3.097656-1.511719-1.953125-2.039063-4.5-1.421876-6.894531 4.546876-17.667969 20.476563-30.007813 38.738282-30.007813 18.261718 0 34.195312 12.339844 38.742187 30.007813.617188 2.394531.089844 4.9375-1.425781 6.894531s-3.851562 3.097656-6.324219 3.097656zm-48.898437-16h35.8125c-4.441406-4.964844-10.886719-8-17.90625-8-7.015625 0-13.460938 3.035156-17.90625 8zm0 0" fill="#fac480"/><path d="m175.996094 264.003906c32.632812 0 59.542968 24.433594 63.484375 56h32.179687c-4.066406-49.273437-45.339844-88-95.667968-88-50.324219 0-91.601563 38.726563-95.667969 88h32.183593c3.941407-31.566406 30.851563-56 63.488282-56zm0 0" fill="#ffeda4"/><path d="m271.660156 328.003906h-32.179687c-4.035157 0-7.441407-3.003906-7.9375-7.007812-3.488281-27.929688-27.367188-48.992188-55.546875-48.992188-28.183594 0-52.0625 21.0625-55.546875 48.992188-.5 4.003906-3.90625 7.007812-7.941407 7.007812h-32.179687c-2.238281 0-4.371094-.933594-5.886719-2.578125-1.515625-1.648437-2.273437-3.851562-2.085937-6.078125 2.136719-25.925781 13.867187-49.964844 33.023437-67.691406 19.269532-17.832031 44.347656-27.652344 70.613282-27.652344 26.269531 0 51.347656 9.820313 70.617187 27.652344 19.15625 17.726562 30.886719 41.765625 33.023437 67.691406.183594 2.230469-.574218 4.433594-2.085937 6.078125-1.515625 1.644531-3.648437 2.578125-5.886719 2.578125zm-25.46875-16h16.34375c-7.597656-41.011718-44.042968-72-86.539062-72-42.5 0-78.945313 30.988282-86.539063 72h16.34375c7.339844-32.378906 36.355469-56 70.195313-56 33.835937 0 62.851562 23.621094 70.195312 56zm0 0" fill="#fac480"/><path d="m175.996094 264.003906c-32.636719 0-59.546875 24.433594-63.488282 56h32.496094c3.550782-13.800781 16.078125-24 30.992188-24 14.910156 0 27.4375 10.199219 30.992187 24h32.492188c-3.941407-31.566406-30.851563-56-63.484375-56zm0 0" fill="#fff6d2"/><path d="m239.480469 328.003906h-32.496094c-3.648437 0-6.835937-2.46875-7.746094-6.003906-2.726562-10.597656-12.285156-17.996094-23.246093-17.996094-10.957032 0-20.515626 7.398438-23.242188 17.996094-.910156 3.535156-4.097656 6.003906-7.75 6.003906h-32.492188c-2.292968 0-4.480468-.984375-5.996093-2.703125-1.519531-1.71875-2.226563-4.007812-1.941407-6.285156 4.480469-35.921875 35.1875-63.011719 71.421876-63.011719 36.238281 0 66.941406 27.089844 71.425781 63.011719.285156 2.277344-.421875 4.566406-1.941407 6.285156-1.519531 1.71875-3.703124 2.703125-5.996093 2.703125zm-26.808594-16h16.988281c-6.9375-23.335937-28.601562-40-53.667968-40-25.066407 0-46.726563 16.664063-53.664063 40h16.988281c6.265625-14.394531 20.5625-24 36.675782-24 16.113281 0 30.410156 9.605469 36.679687 24zm0 0" fill="#fac480"/><path d="m175.996094 296.003906c-14.914063 0-27.441406 10.199219-30.992188 24h61.984375c-3.554687-13.800781-16.082031-24-30.992187-24zm0 0" fill="#fffae8"/><path d="m206.984375 328.003906h-61.980469c-2.476562 0-4.808594-1.144531-6.324218-3.097656-1.515626-1.953125-2.042969-4.5-1.425782-6.894531 4.546875-17.667969 20.476563-30.007813 38.738282-30.007813 18.261718 0 34.195312 12.339844 38.742187 30.007813.613281 2.394531.089844 4.9375-1.425781 6.894531s-3.847656 3.097656-6.324219 3.097656zm-48.894531-16h35.808594c-4.441407-4.964844-10.886719-8-17.902344-8-7.019532 0-13.464844 3.035156-17.90625 8zm0 0" fill="#fac480"/><path d="m423.050781 364.230469c-1.390625-2.601563-4.101562-4.226563-7.054687-4.226563h-320.003906c-2.949219 0-5.660157 1.625-7.054688 4.226563-1.390625 2.601562-1.238281 5.757812.398438 8.214843l17.75 26.625c10.410156 15.613282 27.828124 24.9375 46.597656 24.9375h204.625c18.765625 0 36.1875-9.320312 46.59375-24.9375l17.753906-26.625c1.636719-2.457031 1.789062-5.613281.394531-8.214843zm0 0" fill="#e5e4e0"/><path d="m382.308594 408.007812h-204.625c-18.765625 0-36.1875-9.324218-46.597656-24.9375l-15.375-23.066406h-19.71875c-2.949219 0-5.660157 1.625-7.050782 4.226563-1.394531 2.601562-1.242187 5.757812.394532 8.214843l17.75 26.625c10.410156 15.613282 27.828124 24.9375 46.597656 24.9375h204.625c16.238281 0 31.457031-6.988281 42.011718-18.984374-5.722656 1.9375-11.789062 2.984374-18.011718 2.984374zm0 0" fill="#d8d6d0"/><path d="m511.75 318.027344c-.902344-3.542969-4.09375-6.019532-7.75-6.019532h-496.007812c-3.511719 0-6.691407 2.378907-7.679688 5.75-1.042969 3.570313.585938 7.492188 3.847656 9.269532l88.003906 48.003906c1.171876.640625 2.492188.976562 3.828126.976562h320.007812c1.335938 0 2.652344-.335937 3.828125-.976562l88.003906-48.003906c3.207031-1.75 4.824219-5.457032 3.917969-9zm0 0" fill="#f2f1ef"/><path d="m44.152344 327.027344c-3.261719-1.777344-4.890625-5.703125-3.847656-9.269532.988281-3.371093 4.167968-5.753906 7.679687-5.753906h-39.992187c-3.511719 0-6.691407 2.382813-7.679688 5.753906-1.042969 3.566407.585938 7.492188 3.847656 9.269532l88.003906 48.003906 35.828126.976562zm0 0" fill="#e5e4e0"/><path d="m106.808594 257.199219c-13.074219-13.078125-32.320313-18.230469-50.21875-13.457031-1.382813.371093-2.464844 1.449218-2.832032 2.835937-4.777343 17.898437.378907 37.144531 13.453126 50.21875 9.851562 9.851563 23.203124 15.207031 36.84375 15.207031 4.464843 0 8.960937-.574218 13.375-1.75 1.386718-.371094 2.464843-1.449218 2.835937-2.835937 4.777344-17.898438-.378906-37.144531-13.457031-50.21875zm0 0" fill="#8bdca3"/><path d="m113.035156 303.023438c-13.640625 0-26.992187-5.355469-36.84375-15.207032-11.847656-11.851562-17.195312-28.765625-14.535156-45.15625-1.699219.273438-3.386719.632813-5.066406 1.082032-1.382813.371093-2.464844 1.449218-2.832032 2.832031-4.777343 17.902343.378907 37.144531 13.453126 50.222656 9.851562 9.851563 23.203124 15.207031 36.84375 15.207031 4.464843 0 8.960937-.574218 13.375-1.75 1.386718-.371094 2.464843-1.453125 2.835937-2.835937.449219-1.6875.8125-3.386719 1.085937-5.09375-2.765624.449219-5.546874.699219-8.316406.699219zm0 0" fill="#6ed38c"/><path d="m184.265625 246.578125c-.367187-1.386719-1.449219-2.464844-2.832031-2.835937-17.898438-4.773438-37.144532.378906-50.222656 13.457031-13.074219 13.074219-18.230469 32.320312-13.453126 50.21875.367188 1.386719 1.449219 2.464843 2.832032 2.835937 4.414062 1.175782 8.910156 1.75 13.378906 1.75 13.636719 0 26.992188-5.355468 36.839844-15.207031 13.078125-13.074219 18.234375-32.320313 13.457031-50.21875zm0 0" fill="#a8e5ba"/><path d="m184.265625 246.578125c-.367187-1.386719-1.449219-2.464844-2.832031-2.835937-1.402344-.375-2.816406-.679688-4.234375-.933594 2.980469 16.648437-2.335938 33.9375-14.386719 45.988281-9.851562 9.851563-23.203125 15.207031-36.84375 15.207031-3.046875 0-6.109375-.289062-9.148438-.832031.253907 1.421875.5625 2.839844.9375 4.246094.371094 1.386719 1.449219 2.464843 2.832032 2.835937 4.417968 1.175782 8.914062 1.75 13.378906 1.75 13.640625 0 26.992188-5.355468 36.84375-15.207031 13.074219-13.074219 18.230469-32.320313 13.453125-50.21875zm0 0" fill="#8bdca3"/><path d="m295.996094 288.003906c0 13.253906-10.746094 24-24 24s-24-10.746094-24-24 10.746094-24 24-24 24 10.746094 24 24zm0 0" fill="#f38763"/><path d="m375.996094 272.003906c0 8.835938-7.160156 16-16 16-8.835938 0-16-7.164062-16-16 0-8.835937 7.164062-16 16-16 8.839844 0 16 7.164063 16 16zm0 0" fill="#f38763"/><path d="m231.996094 232.003906c0 8.835938-7.164063 16-16 16-8.835938 0-16-7.164062-16-16 0-8.835937 7.164062-16 16-16 8.835937 0 16 7.164063 16 16zm0 0" fill="#f38763"/></svg>
