<svg id="Layer_1" enable-background="new 0 0 511.964 511.964" height="45px" viewBox="0 0 511.964 511.964" width="45px" xmlns="http://www.w3.org/2000/svg"><g><g><g><circle cx="255.97" cy="255.824" fill="#fff3de" r="248.511"/></g><g><path d="m504.48 255.826c0 137.246-111.262 248.508-248.508 248.508-51.966 0-100.198-15.947-140.082-43.229 35.39 19.382 76.002 30.397 119.191 30.397 137.246 0 248.508-111.262 248.508-248.518 0-85.209-42.889-160.413-108.267-205.18 76.972 42.231 129.158 124.035 129.158 218.022z" fill="#ffe5c2"/></g></g><g><g><path d="m392.531 259.557c10.595-45.489 8.665-93.794 16.894-140.045 1.276-7.171-5.013-13.46-12.184-12.184-46.251 8.229-94.556 6.299-140.045 16.894-34.825 8.111-65.566 19.393-90.236 44.017-26.945 26.896-41.312 65.42-48.324 104.047-7.726 42.557-8.264 87.118-16.113 129.613-1.352 7.317 5.015 13.683 12.332 12.332 42.495-7.85 87.055-8.388 129.613-16.113 38.627-7.012 77.151-21.379 104.047-48.324 24.623-24.671 35.905-55.412 44.016-90.237z" fill="#f6a96c"/></g><g><path d="m409.428 119.507c-8.228 46.255-6.301 94.556-16.896 140.052-8.108 34.821-19.392 65.567-44.018 90.232-26.892 26.942-65.417 41.312-104.043 48.322-42.56 7.729-87.127 8.268-129.616 16.117-7.32 1.348-13.681-5.013-12.333-12.332.17-.939.339-1.867.509-2.806.919.08 1.877.04 2.846-.14 41.082-7.589 84.171-8.108 125.313-15.578 37.347-6.78 74.594-20.671 100.597-46.724 23.806-23.856 34.711-53.574 42.56-87.246 10.246-43.978 8.378-90.682 16.327-135.398.349-1.947.12-3.835-.549-5.502 2.377-.359 4.753-.759 7.12-1.178 7.17-1.27 13.451 5.012 12.183 12.181z" fill="#ea9b58"/></g><g><path d="m357.264 259.841c8.45-36.28 6.156-74.976 14.047-111.594.36-1.67-1.136-3.166-2.806-2.806-36.618 7.891-75.314 5.597-111.594 14.047-25.823 6.014-48.618 14.38-66.911 32.639-19.98 19.943-30.633 48.51-35.833 77.152-6.209 34.201-6.157 70.148-13.532 103.997-.372 1.706 1.134 3.212 2.84 2.84 33.85-7.375 69.796-7.324 103.997-13.532 28.642-5.199 57.209-15.853 77.152-35.833 18.26-18.292 26.626-41.086 32.64-66.91z" fill="#f9f3f1"/></g><g><path d="m371.312 148.247c-7.889 36.618-5.602 75.313-14.05 111.592-6.012 25.823-14.38 48.621-32.634 66.915-19.952 19.982-48.511 30.637-77.151 35.829-34.202 6.211-70.151 6.161-104.003 13.531-1.708.38-3.215-1.129-2.836-2.836 1.218-5.612 2.237-11.274 3.116-16.986 28.46-4.304 57.888-5.163 86.138-10.285 28.639-5.203 57.209-15.858 77.151-35.839 18.264-18.284 26.622-41.082 32.644-66.905 7.16-30.757 6.6-63.24 11.064-94.726 5.962-.829 11.883-1.827 17.755-3.096 1.668-.36 3.165 1.138 2.806 2.806z" fill="#f3eae6"/></g><g><g><circle cx="255.965" cy="260.787" fill="#fee97d" r="33.526"/></g></g><g><g><path d="m289.488 260.787c0 18.514-15.009 33.523-33.523 33.523-7.18 0-13.82-2.257-19.273-6.091 18.514-.01 33.523-15.009 33.523-33.523 0-11.344-5.632-21.36-14.24-27.431 18.514.01 33.513 15.008 33.513 33.522z" fill="#fee45a"/></g></g><g><path d="m227.101 49.999c-2.33-3.504-7.252-4.028-10.268-1.094-14.509 14.115-51.098 55.628-46.016 111.189 1.326 14.5 6.172 28.716 13.833 41.951 3.87 6.686 8.759 14.501 13.933 21.207 2.333 3.023 6.714 3.49 9.631 1.026 6.471-5.465 12.896-12.075 18.088-17.796 10.277-11.324 18.009-24.201 22.36-38.096 16.672-53.243-10.35-101.532-21.561-118.387z" fill="#91deb6"/></g><g><path d="m248.666 168.388c-4.354 13.89-12.083 26.772-22.368 38.096-5.183 5.722-11.614 12.332-18.084 17.795-2.916 2.466-7.3 1.997-9.626-1.029-1.688-2.177-3.355-4.484-4.953-6.83 5.103-4.424 10.026-9.307 14.16-13.641 10.216-10.715 17.875-22.927 22.149-36.119 15.588-48.102-8.308-92.13-20.391-110.174 2.736-3.046 5.233-5.582 7.28-7.579 3.016-2.936 7.939-2.417 10.275 1.088 11.202 16.857 38.224 65.148 21.558 118.393z" fill="#6ed5a1"/></g><g><path d="m436.982 74.805c-87.798-90.993-241.366-100.114-339.279-20.216-3.25 2.559-3.81 7.268-1.25 10.517 2.559 3.25 7.267 3.808 10.517 1.251 156.34-124.2 390.99-10.272 390.012 189.468 2.672 129.545-111.464 243.701-241.022 241.017-211.474.436-320.529-256.591-173.397-408.422 2.873-2.975 2.79-7.717-.185-10.59-2.976-2.872-7.717-2.788-10.59.185-156.279 161.316-40.431 434.272 184.177 433.807 227.224-.212 341.539-276.206 181.017-437.017z"/><path d="m214.95 260.787c0 22.615 18.4 41.015 41.016 41.015 54.337-2.062 54.323-79.976-.001-82.03-22.615 0-41.015 18.4-41.015 41.015zm41.016-26.036c14.357 0 26.036 11.68 26.036 26.036-1.309 34.494-50.77 34.484-52.073 0 0-14.356 11.68-26.036 26.037-26.036z"/><path d="m111.267 270.948c-3.886 21.405-5.999 43.51-8.043 64.888-2.048 21.432-4.167 43.593-8.066 64.702-2.446 12.291 8.821 23.403 21.057 21.057 21.109-3.899 43.27-6.018 64.7-8.067 21.378-2.043 43.484-4.156 64.889-8.042 46.76-8.488 83.1-25.446 108.011-50.402 36.38-32.242 53.43-108.957 56.101-172.108l.397-5.074c.324-4.124-2.755-7.729-6.878-8.054-4.128-.314-7.73 2.755-8.055 6.878l-.398 5.083c-6.899 106.359-28.203 187.973-151.854 208.937-42.843 7.727-86.665 8.186-129.634 16.119-1.406.263-2.333-.418-2.76-.846-.428-.427-1.106-1.355-.846-2.761 7.931-42.968 8.391-86.79 16.117-129.635 7.286-40.138 21.011-71.81 40.831-94.306 1.866 6.576 4.399 13.088 7.589 19.501-13.218 17.749-22.503 40.901-27.626 69.124-2.896 15.951-4.467 32.384-5.986 48.274-1.764 18.452-3.588 37.534-7.495 55.467-.72 3.304.276 6.701 2.663 9.089 3.587 3.793 9.002 3.096 13.572 1.967 6.717-1.511 13.479-2.609 20.34-3.509 9.439-1.238 18.915-2.168 28.391-3.076 46.138-3.142 102.276-12.783 131.642-44.111 20.932-20.972 29.254-47.408 34.634-70.504 8.601-36.878 6.246-74.944 14.073-111.715.708-3.281-.29-6.66-2.667-9.037-2.378-2.377-5.758-3.374-9.038-2.668-17.313 3.731-35.648 5.163-53.379 6.547-17.576 1.372-35.697 2.795-53.326 6.435.98-6.879 1.351-13.615 1.231-20.157 45.029-9.887 91.566-8.114 137.101-16.244 1.336-.236 2.233.427 2.651.847.418.418 1.084 1.318.847 2.652-1.322 7.434-2.459 15.301-3.477 24.05-.478 4.108 2.466 7.827 6.574 8.305 4.111.481 7.826-2.466 8.304-6.575.982-8.447 2.076-16.022 3.346-23.157 1.027-5.776-.843-11.708-5.004-15.868-4.16-4.159-10.091-6.031-15.866-5.001-20.332 3.617-41.591 5.277-62.15 6.883-24.243 1.893-49.259 3.846-73.459 9.013-4.189-31.926-18.752-57.622-26.983-69.999 0 0 0-.001-.001-.001-2.349-3.53-6.11-5.811-10.32-6.26-4.212-.451-8.368.991-11.406 3.947-16.284 15.841-53.581 58.975-48.252 117.24.014.156.035.311.05.467-.582.56-1.164 1.119-1.739 1.693-24.957 24.913-41.915 61.253-50.403 108.012zm145.552-103.739c18.675-4.55 38.57-6.097 57.895-7.607 15.716-1.228 31.892-2.491 47.781-5.343-13.402 91.234 1.969 179.783-116.36 200.958-15.33 2.782-31.442 4.323-47.024 5.812-16.356 1.564-33.193 3.173-49.623 6.237 5.989-32.088 6.297-64.7 12.049-96.647 4.186-23.058 11.269-42.255 21.096-57.389 3.441 5.522 6.798 10.422 10.021 14.599 2.354 3.051 5.901 5.034 9.732 5.442 3.813.41 7.719-.781 10.661-3.269 5.758-4.863 12.084-11.083 18.802-18.486 11.303-12.454 19.364-26.211 23.961-40.89.357-1.143.688-2.281 1.009-3.417zm-35.435-112.278c20.9 29.031 43.886 99.838-.628 146.518-6.025 6.64-11.655 12.211-16.746 16.572-11.912-15.517-24.635-38.785-25.736-58.608-4.67-51.07 28.041-89.634 43.11-104.482z"/><path d="m336.786 195.057c3.813 1.321 8.176-.739 9.494-4.694l2.436-7.203c1.325-3.918-.777-8.169-4.695-9.494-3.92-1.326-8.168.776-9.494 4.694l-2.436 7.203c-1.325 3.918.777 8.169 4.695 9.494z"/><path d="m309.34 220.967 6.965 3.05c3.698 1.646 8.203-.029 9.865-3.856 1.659-3.789-.067-8.205-3.856-9.865l-6.965-3.05c-3.791-1.66-8.206.067-9.865 3.856s.067 8.205 3.856 9.865z"/><path d="m283.25 307.862c-.554 4.099 2.319 7.871 6.418 8.426l7.535 1.019c4.016.57 7.89-2.301 8.426-6.419.554-4.099-2.319-7.871-6.418-8.425l-7.535-1.019c-4.098-.547-7.871 2.319-8.426 6.418z"/><path d="m312.866 264.02c-.63 4.088 2.173 7.913 6.261 8.543l7.515 1.158c3.998.646 7.931-2.152 8.543-6.261.63-4.088-2.173-7.913-6.261-8.542l-7.515-1.158c-4.088-.631-7.912 2.172-8.543 6.26z"/><path d="m267.788 198.985c.916 4.059 5.062 6.548 8.986 5.606 4.03-.933 6.54-4.956 5.607-8.986l-1.715-7.407c-.933-4.029-4.955-6.537-8.986-5.606-4.03.933-6.54 4.956-5.607 8.986z"/><path d="m233.855 318.507-5.224 5.525c-2.841 3.006-2.708 7.746.297 10.588 3.001 2.837 7.742 2.712 10.588-.298l5.224-5.525c2.841-3.006 2.708-7.746-.297-10.588-3.006-2.839-7.746-2.707-10.588.298z"/><path d="m196.715 270.754c-1.812-3.718-6.294-5.264-10.014-3.452-3.718 1.812-5.264 6.295-3.452 10.013l3.331 6.835c1.819 3.756 6.377 5.248 10.014 3.452 3.718-1.812 5.264-6.295 3.452-10.013z"/><path d="m190.026 317.406-7.408 1.711c-4.03.931-6.542 4.953-5.612 8.983.914 4.059 5.058 6.551 8.983 5.611l7.408-1.711c4.03-.931 6.542-4.953 5.612-8.983-.932-4.029-4.953-6.536-8.983-5.611z"/><path d="m201.848 167.62-1.325 12.439c-.438 4.112 2.541 7.802 6.654 8.24 4.041.454 7.819-2.527 8.241-6.655l1.325-12.438 15.063-13.966c3.033-2.812 3.212-7.551.4-10.584-2.812-3.034-7.551-3.213-10.584-.401l-2.465 2.286.734-6.887 15.064-13.966c3.033-2.812 3.212-7.551.4-10.584-2.812-3.034-7.551-3.213-10.584-.401l-2.466 2.286 1.122-10.535c.438-4.112-2.541-7.802-6.654-8.24-4.113-.441-7.803 2.54-8.241 6.655l-1.122 10.534-1.929-2.754c-2.372-3.387-7.044-4.21-10.431-1.838-3.388 2.373-4.211 7.043-1.838 10.432l11.783 16.825-.734 6.888-1.929-2.754c-2.373-3.387-7.043-4.21-10.431-1.838-3.388 2.373-4.211 7.043-1.838 10.431z"/></g></g></g></svg>
