<svg id="Layer_1" height="45px" viewBox="0 0 512 512" width="45px" xmlns="http://www.w3.org/2000/svg"><g><g><path d="m432 152v104c0 4.418-3.582 8-8 8-4.418 0-8-3.582-8-8v-48c0-4.418-3.582-8-8-8-4.418 0-8 3.582-8 8 0 8.837-7.163 16-16 16-8.837 0-16-7.163-16-16v-56z" fill="#faa019"/></g><g><g><path d="m461.789 132.468c-41.976-69.779-118.424-116.468-205.789-116.468-132.286 0-240.203 108.091-240 240.377.204 132.376 107.577 239.623 240 239.623 87.323 0 163.74-46.644 205.729-116.368 2.32-3.853 1.069-8.855-2.826-11.104l-194.903-112.528 194.902-112.526c3.857-2.226 5.183-7.191 2.887-11.006z" fill="#f06423"/></g></g><g><path d="m260 16h-7.999v233.072l-201.847-116.536-4 6.928 201.846 116.536-201.846 116.536 3.999 6.928 201.847-116.536v233.072h7.999v-233.072l201.847 116.536c2.209-3.826.898-8.719-2.928-10.928l-194.918-112.536 194.918-112.536c3.826-2.209 5.137-7.101 2.929-10.928l-201.847 116.536z" fill="#d24605"/></g><g><path d="m32 272c-8.836 0-16-7.163-16-16 0-64.106 24.964-124.376 70.294-169.706s105.6-70.294 169.706-70.294c8.836 0 16 7.163 16 16s-7.164 16-16 16c-114.691 0-208 93.309-208 208 0 8.837-7.164 16-16 16z" fill="#faa019"/></g><g><g><path d="m77.942 148.579-27.788-16.044-4 6.929 27.776 16.037c1.294-2.335 2.632-4.643 4.012-6.922z" fill="#f06423"/></g></g><g><path d="m264 256 174.133-100.535c-35.445-64.077-103.722-107.465-182.133-107.465-114.875 0-208 93.125-208 208s93.125 208 208 208c78.411 0 146.688-43.388 182.133-107.464z" fill="#ffd205"/></g><g><path d="m434.127 148.54-174.127 100.532v-201.035c-1.33-.025-2.664-.038-4-.038s-2.669.013-3.999.038v201.035l-174.127-100.532c-1.378 2.279-2.714 4.588-4.006 6.924l174.132 100.536-174.133 100.535c1.292 2.336 2.628 4.645 4.006 6.925l174.127-100.532v201.034c1.33.025 2.664.038 4 .038s2.669-.013 3.999-.038v-201.034l174.127 100.532c1.378-2.279 2.714-4.588 4.006-6.924l-174.132-100.536 174.133-100.535c-1.292-2.336-2.628-4.645-4.006-6.925z" fill="#faa019"/></g><g><path d="m56 264c-4.418 0-8-3.582-8-8 0-114.691 93.309-208 208-208 4.418 0 8 3.582 8 8s-3.582 8-8 8c-105.869 0-192 86.131-192 192 0 4.418-3.582 8-8 8z" fill="#ffff50"/></g><g><g><path d="m77.942 148.579c-1.38 2.279-2.718 4.587-4.012 6.922l13.856 8c1.29-2.338 2.628-4.646 4.012-6.922z" fill="#ffd205"/></g></g><g><g><circle cx="312" cy="104" fill="#f04b37" r="32"/></g><g><path d="m312 136c-4.418 0-8-3.582-8-8s3.582-8 8-8c8.822 0 16-7.178 16-16 0-4.418 3.582-8 8-8s8 3.582 8 8c0 17.645-14.355 32-32 32z" fill="#e1322d"/></g></g><g><g><circle cx="208" cy="168" fill="#f04b37" r="32"/></g><g><path d="m208 200c-4.418 0-8-3.582-8-8s3.582-8 8-8c8.822 0 16-7.178 16-16 0-4.418 3.582-8 8-8s8 3.582 8 8c0 17.645-14.355 32-32 32z" fill="#e1322d"/></g></g><g><g><circle cx="208" cy="360" fill="#f04b37" r="32"/></g><g><path d="m208 392c-4.418 0-8-3.582-8-8s3.582-8 8-8c8.822 0 16-7.178 16-16 0-4.418 3.582-8 8-8s8 3.582 8 8c0 17.645-14.355 32-32 32z" fill="#e1322d"/></g></g><g><g><circle cx="112" cy="256" fill="#f04b37" r="32"/></g><g><path d="m112 288c-4.418 0-8-3.582-8-8s3.582-8 8-8c8.822 0 16-7.178 16-16 0-4.418 3.582-8 8-8s8 3.582 8 8c0 17.645-14.355 32-32 32z" fill="#e1322d"/></g></g><g><g><circle cx="328" cy="376" fill="#f04b37" r="32"/></g><g><path d="m328 408c-4.418 0-8-3.582-8-8s3.582-8 8-8c8.822 0 16-7.178 16-16 0-4.418 3.582-8 8-8s8 3.582 8 8c0 17.645-14.355 32-32 32z" fill="#e1322d"/></g></g><g><path d="m320 192c-4.418 0-8-3.582-8-8 0-4.411-3.589-8-8-8s-8 3.589-8 8c0 4.418-3.582 8-8 8s-8-3.582-8-8c0-13.233 10.766-24 24-24s24 10.767 24 24c0 4.418-3.582 8-8 8z" fill="#5faa46"/></g><g><path d="m208 120c-4.418 0-8-3.582-8-8 0-4.411-3.589-8-8-8s-8 3.589-8 8c0 4.418-3.582 8-8 8s-8-3.582-8-8c0-13.233 10.766-24 24-24s24 10.767 24 24c0 4.418-3.582 8-8 8z" fill="#5faa46"/></g><g><path d="m168 276c-4.418 0-8-3.582-8-8s3.582-8 8-8c4.411 0 8-3.589 8-8s-3.589-8-8-8c-4.418 0-8-3.582-8-8s3.582-8 8-8c13.234 0 24 10.767 24 24s-10.766 24-24 24z" fill="#5faa46"/></g><g><path d="m136 400c-4.418 0-8-3.582-8-8s3.582-8 8-8c4.411 0 8-3.589 8-8s-3.589-8-8-8c-4.418 0-8-3.582-8-8s3.582-8 8-8c13.234 0 24 10.767 24 24s-10.766 24-24 24z" fill="#5faa46"/></g><g><path d="m296 336c-13.234 0-24-10.767-24-24s10.766-24 24-24c4.418 0 8 3.582 8 8s-3.582 8-8 8c-4.411 0-8 3.589-8 8s3.589 8 8 8c4.418 0 8 3.582 8 8s-3.582 8-8 8z" fill="#5faa46"/></g><g><path d="m376 148c-6.617 0-12-5.383-12-12s5.383-12 12-12 12 5.383 12 12-5.383 12-12 12zm0-16c-2.206 0-4 1.794-4 4s1.794 4 4 4 4-1.794 4-4-1.794-4-4-4z" fill="#555a6e"/></g><g><path d="m136 164c-6.617 0-12-5.383-12-12s5.383-12 12-12 12 5.383 12 12-5.383 12-12 12zm0-16c-2.206 0-4 1.794-4 4s1.794 4 4 4 4-1.794 4-4-1.794-4-4-4z" fill="#555a6e"/></g><g><path d="m88 324c-6.617 0-12-5.383-12-12s5.383-12 12-12 12 5.383 12 12-5.383 12-12 12zm0-16c-2.206 0-4 1.794-4 4s1.794 4 4 4 4-1.794 4-4-1.794-4-4-4z" fill="#555a6e"/></g><g><path d="m200 436c-6.617 0-12-5.383-12-12s5.383-12 12-12 12 5.383 12 12-5.383 12-12 12zm0-16c-2.206 0-4 1.794-4 4s1.794 4 4 4 4-1.794 4-4-1.794-4-4-4z" fill="#555a6e"/></g><g><path d="m232 308c-6.617 0-12-5.383-12-12s5.383-12 12-12 12 5.383 12 12-5.383 12-12 12zm0-16c-2.206 0-4 1.794-4 4s1.794 4 4 4 4-1.794 4-4-1.794-4-4-4z" fill="#555a6e"/></g><g><path d="m288 436c-6.617 0-12-5.383-12-12s5.383-12 12-12 12 5.383 12 12-5.383 12-12 12zm0-16c-2.206 0-4 1.794-4 4s1.794 4 4 4 4-1.794 4-4-1.794-4-4-4z" fill="#555a6e"/></g><g><path d="m392 388c-6.617 0-12-5.383-12-12s5.383-12 12-12 12 5.383 12 12-5.383 12-12 12zm0-16c-2.206 0-4 1.794-4 4s1.794 4 4 4 4-1.794 4-4-1.794-4-4-4z" fill="#555a6e"/></g><g><g><circle cx="352" cy="160" fill="#ffff50" r="12"/></g><g><circle cx="236" cy="84" fill="#ffff50" r="12"/></g><g><circle cx="108" cy="204" fill="#ffff50" r="12"/></g><g><circle cx="160" cy="416" fill="#ffff50" r="12"/></g><g><circle cx="276" cy="364" fill="#ffff50" r="12"/></g><g><circle cx="348" cy="132" fill="#ffff50" r="4"/></g><g><circle cx="372" cy="100" fill="#ffff50" r="4"/></g><g><circle cx="284" cy="148" fill="#ffff50" r="4"/></g><g><circle cx="276" cy="220" fill="#ffff50" r="4"/></g><g><circle cx="228" cy="220" fill="#ffff50" r="4"/></g><g><circle cx="164" cy="132" fill="#ffff50" r="4"/></g><g><circle cx="156" cy="292" fill="#ffff50" r="4"/></g><g><circle cx="228" cy="412" fill="#ffff50" r="4"/></g><g><circle cx="316" cy="444" fill="#ffff50" r="4"/></g><g><circle cx="324" cy="324" fill="#ffff50" r="4"/></g><g><circle cx="68" cy="284" fill="#ffff50" r="4"/></g></g></g></svg>
