<svg id="Flat" height="45px" viewBox="0 0 512 512" width="45px" xmlns="http://www.w3.org/2000/svg"><path d="m80 264s-16-16-16-56l24 8s0-40 48-56v32s32-8 64 0c0 0-8 40-32 56l32 16s-24 40-72 8v32s-32-16-48-40z" fill="#818a55"/><path d="m151.519 221.266a8 8 0 0 0 -10.253-4.785c-26.539 9.651-61.538 28.629-77.561 64.236a88.82 88.82 0 0 0 -7.715 30.254 109.368 109.368 0 0 0 -25.226 1.129 8 8 0 0 0 2.472 15.8c49.619-7.757 69.223 23.254 71.174 26.626a8.153 8.153 0 0 0 .364.9 8.02 8.02 0 0 0 14.859-5.947c-.979-3.168-8.075-14.864-22.283-24.521a81.155 81.155 0 0 0 -25.477-11.4 72.551 72.551 0 0 1 6.8-27.112c11.183-24.1 34.082-42.579 68.059-54.934a8 8 0 0 0 4.787-10.246z" fill="#ab6647"/><path d="m384 232v240a16 16 0 0 1 -16 16h-128a16 16 0 0 1 -16-16v-240c0-56 56-80 56-80v-80h-8v-48h64v48h-8v80s56 24 56 80z" fill="#4f5659"/><path d="m424 460.664v-100.664a8 8 0 0 0 -16 0v100.664a81.156 81.156 0 0 1 -40 27.336h96a81.156 81.156 0 0 1 -40-27.336z" fill="#e8edf1"/><path d="m280 120h48v32h-48z" fill="#6a7073"/><path d="m256 280h96v144h-96z" fill="#6a7073"/><path d="m480 296c0 48-40 72-64 72s-64-24-64-72 24-112 24-112h80s24 64 24 112z" fill="#e8edf1"/><g fill="#931237"><path d="m480 296c0 48-40 72-64 72s-64-24-64-72a221.508 221.508 0 0 1 3.73-37.64l22.042-6.3a32 32 0 0 1 26.54 4.144l20.237 13.496a32 32 0 0 0 32.061 2l20.21-10.105a214.787 214.787 0 0 1 3.18 34.405z"/><circle cx="256" cy="456" r="32"/><circle cx="192" cy="456" r="32"/></g><circle cx="224" cy="400" fill="#720e2a" r="32"/><circle cx="160" cy="400" fill="#720e2a" r="32"/><circle cx="128" cy="456" fill="#931237" r="32"/><circle cx="96" cy="400" fill="#720e2a" r="32"/><circle cx="192" cy="344" fill="#931237" r="32"/><circle cx="128" cy="344" fill="#931237" r="32"/><path d="m256 256a8 8 0 0 1 -8-8v-16c0-17.3 8.039-33.248 23.249-46.109a8 8 0 0 1 10.33 12.218c-11.664 9.864-17.579 21.266-17.579 33.891v16a8 8 0 0 1 -8 8z" fill="#6a7073"/><path d="m336 24v48h-8v48h-48v-48h-8v-48z" fill="#931237"/></svg>
