<svg xmlns="http://www.w3.org/2000/svg" width="1024" height="1024" viewBox="0 0 1024 1024">
<g>
<path d="M 391.00 807.01 C380.99,809.80 365.45,804.12 356.76,794.50 C351.23,788.37 348.40,775.94 350.93,768.84 C352.06,765.66 351.96,765.38 348.90,763.00 C347.13,761.62 339.87,754.88 332.77,748.00 C320.70,736.31 319.44,735.38 313.35,733.58 C307.48,731.86 306.17,731.80 300.17,732.97 C290.63,734.83 282.41,738.33 272.99,744.57 C264.53,750.16 262.04,750.96 260.15,748.68 C258.88,747.16 265.05,736.01 273.25,725.00 C275.91,721.42 278.76,717.60 279.58,716.50 C280.40,715.40 282.40,712.75 284.03,710.61 C285.67,708.47 287.00,706.43 287.00,706.06 C287.00,704.23 321.47,672.00 323.42,672.00 C323.73,672.00 326.78,669.75 330.19,667.00 C333.61,664.25 336.73,662.00 337.13,662.00 C337.53,662.00 340.60,660.18 343.94,657.96 C347.29,655.74 351.93,653.09 354.26,652.08 C372.46,644.20 380.31,639.68 386.71,633.40 C394.97,625.30 398.41,622.87 413.86,614.17 C427.34,606.58 427.48,606.04 415.94,606.16 C407.74,606.24 399.33,604.53 392.65,601.42 C389.82,600.10 386.93,599.02 386.23,599.01 C384.97,599.00 370.35,592.13 366.50,589.74 C360.67,586.12 354.08,581.27 350.81,578.19 L 347.12 574.71 L 338.31 575.61 C333.47,576.10 324.55,576.42 318.50,576.32 C305.95,576.12 297.68,573.91 285.08,567.40 C257.90,553.37 239.96,514.94 248.57,489.20 C251.46,480.58 256.17,473.31 264.53,464.58 C269.23,459.67 272.95,454.98 272.79,454.16 C272.63,453.33 269.35,450.74 265.50,448.40 C261.65,446.05 257.38,443.19 256.00,442.04 C248.62,435.87 245.74,433.91 237.82,429.62 L 229.14 424.92 L 223.48 432.58 L 217.81 440.24 L 211.03 439.57 C200.25,438.51 186.20,432.39 181.34,426.65 C179.88,424.92 177.11,420.19 175.18,416.15 L 171.68 408.80 L 174.44 403.15 C175.96,400.04 179.11,394.58 181.45,391.00 C183.78,387.42 186.00,383.83 186.36,383.00 C186.73,382.17 188.38,379.48 190.02,377.00 C191.66,374.52 193.79,371.18 194.75,369.57 C198.27,363.67 204.14,358.06 207.46,357.44 C211.89,356.61 223.29,359.54 230.00,363.23 C243.85,370.84 251.00,378.68 251.00,386.23 C251.00,390.27 247.30,398.67 244.50,401.00 C242.26,402.86 238.78,409.84 239.51,411.02 C240.23,412.19 252.50,421.00 253.41,421.00 C253.76,421.00 258.66,424.01 264.28,427.69 C267.25,429.63 269.91,431.38 272.28,432.94 C289.34,444.13 292.09,445.94 294.78,445.85 C295.67,445.82 296.56,445.58 297.96,445.41 C302.40,444.86 304.44,443.94 308.28,440.75 C310.90,438.56 313.51,435.91 314.08,434.85 C315.38,432.41 315.47,421.07 314.20,419.80 C313.58,419.18 309.69,419.26 303.37,420.02 C286.09,422.09 271.27,419.20 264.51,412.44 C260.80,408.73 257.04,402.30 255.09,396.31 C253.50,391.46 254.77,382.63 258.09,375.30 C261.04,368.83 260.65,367.63 254.30,363.41 C248.07,359.28 248.45,357.66 254.89,360.94 C261.70,364.42 263.09,363.90 270.98,354.95 L 278.08 346.90 L 275.11 341.20 C268.76,329.02 267.84,326.40 266.35,316.27 C264.96,306.84 264.96,304.68 266.35,294.55 C267.72,284.52 268.43,282.25 272.91,273.57 C275.68,268.22 280.32,260.93 283.22,257.36 C286.12,253.79 289.96,249.07 291.74,246.87 C293.53,244.66 297.52,240.80 300.61,238.28 C306.90,233.16 322.28,224.00 324.60,224.00 C325.42,224.00 327.43,223.31 329.06,222.47 C332.61,220.63 338.26,219.35 351.00,217.47 C376.76,213.68 408.60,217.87 428.67,227.69 C438.44,232.47 438.57,232.50 449.50,232.72 C455.55,232.84 462.08,232.98 464.00,233.03 C465.92,233.09 473.00,232.10 479.72,230.85 C491.74,228.60 492.07,228.59 500.22,230.30 C504.77,231.26 510.08,232.86 512.00,233.85 C528.44,242.35 538.55,251.00 544.20,261.43 C547.36,267.25 547.50,267.95 547.50,278.50 C547.50,289.06 547.36,289.76 544.11,296.00 C542.25,299.58 539.44,304.07 537.86,305.98 C536.29,307.89 535.00,309.87 535.00,310.37 C535.00,310.87 536.69,313.20 538.75,315.55 C548.93,327.15 556.89,340.65 559.06,350.00 C559.76,353.02 560.83,359.77 561.44,365.00 L 562.54 374.50 L 571.60 374.15 C579.87,373.82 581.13,374.03 586.08,376.54 C595.28,381.20 598.09,383.94 601.93,392.00 L 605.50 399.50 L 605.50 418.00 C605.50,437.40 605.00,440.33 600.06,449.80 C597.35,455.00 585.55,466.95 579.00,471.12 C567.40,478.51 563.02,480.30 555.29,480.79 C551.26,481.05 547.76,481.58 547.52,481.97 C547.28,482.35 546.58,487.80 545.96,494.08 C543.92,514.85 539.22,527.90 526.91,547.00 C519.75,558.11 516.32,566.07 512.94,579.36 C512.77,580.02 512.61,580.64 512.46,581.22 C511.06,586.71 510.50,588.89 511.35,589.99 C511.99,590.82 513.46,591.03 516.00,591.59 C524.10,593.38 527.27,594.50 533.70,597.85 C538.95,600.59 540.54,600.90 550.50,601.19 L 561.50 601.50 L 562.64 594.50 C565.06,579.61 567.10,571.91 570.31,565.50 C571.14,563.85 572.42,561.17 573.16,559.55 C573.90,557.93 576.19,554.34 578.25,551.58 L 582.00 546.55 L 582.07 536.03 C582.11,530.24 582.56,523.03 583.08,520.00 C583.59,516.97 584.29,512.58 584.63,510.23 C584.98,507.88 585.66,505.71 586.13,505.42 C586.61,505.12 587.00,503.78 587.00,502.43 C587.00,501.08 588.58,495.17 590.50,489.29 C592.42,483.41 594.00,478.13 594.01,477.55 C594.01,476.97 594.64,475.31 595.40,473.85 C596.16,472.39 597.34,469.46 598.02,467.35 C598.70,465.23 600.25,461.25 601.47,458.50 C602.69,455.75 604.72,450.35 605.97,446.50 C607.22,442.65 608.81,438.59 609.49,437.48 C610.67,435.59 613.95,424.06 616.19,414.00 C616.75,411.52 617.62,407.70 618.13,405.50 C622.18,388.14 623.05,363.22 620.10,349.40 C617.89,339.09 615.64,330.56 614.20,327.00 C613.64,325.62 612.26,321.58 611.13,318.00 C610.00,314.42 607.66,307.67 605.93,303.00 C599.17,284.76 596.00,272.32 596.00,264.10 C596.00,258.44 600.36,243.96 603.54,239.00 C608.03,232.03 620.35,221.64 625.50,220.48 C627.15,220.11 630.41,218.95 632.75,217.90 C643.45,213.09 667.37,213.91 679.60,219.50 C682.60,220.88 685.34,222.00 685.68,222.00 C687.49,222.00 697.41,229.66 701.52,234.23 C713.26,247.28 719.18,259.13 726.97,285.15 C728.31,289.63 729.17,296.33 729.60,305.65 C730.17,318.12 729.96,320.94 727.51,334.00 C726.02,341.98 724.13,350.52 723.32,353.00 C718.11,368.95 716.36,393.30 719.55,405.54 C720.40,408.82 721.42,411.81 721.80,412.18 C722.19,412.56 727.22,413.37 733.00,413.99 C742.47,415.00 752.04,417.00 768.00,421.31 C776.15,423.50 804.26,436.00 805.48,437.96 C805.84,438.55 807.81,439.88 809.85,440.92 C815.35,443.73 827.29,455.20 832.58,462.78 C837.30,469.52 840.02,474.89 843.97,485.21 C846.57,492.01 847.82,510.63 846.20,518.50 C845.94,519.74 845.70,520.89 845.48,521.95 C843.42,531.91 842.87,534.57 843.55,536.86 C843.87,537.94 844.46,538.95 845.29,540.59 C851.17,552.19 852.74,566.77 849.57,580.38 C847.23,590.41 840.90,602.68 835.13,608.37 L 830.26 613.17 L 832.28 619.33 C833.77,623.91 834.31,628.37 834.38,636.63 C834.46,647.65 834.42,647.84 830.58,655.40 C826.19,664.05 818.95,672.13 810.99,677.23 L 805.58 680.70 L 805.47 689.10 C805.24,707.37 795.59,722.33 775.59,735.45 C761.22,744.87 751.98,748.73 734.50,752.61 C723.11,755.14 721.54,755.24 703.50,754.70 C686.73,754.20 683.09,753.77 672.50,751.08 C653.47,746.23 647.47,743.66 633.39,734.36 C628.93,731.41 625.00,729.00 624.66,729.00 C624.33,729.00 618.47,733.89 611.66,739.86 C599.57,750.45 589.95,756.52 586.34,755.83 C584.77,755.52 584.56,754.22 584.51,744.49 C584.45,729.11 582.16,725.38 570.09,720.97 C561.79,717.95 551.54,717.94 540.50,720.96 C536.10,722.17 530.24,723.73 527.48,724.43 C524.71,725.14 521.02,726.45 519.28,727.36 C517.53,728.26 515.62,729.00 515.03,729.00 C514.44,729.00 504.85,733.59 493.73,739.20 C451.69,760.40 438.31,766.52 421.00,772.52 L 411.50 775.81 L 410.81 781.87 C410.39,785.62 409.11,789.65 407.46,792.47 C404.10,798.21 395.58,805.74 391.00,807.01 ZM 412.00 598.01 C438.59,601.37 462.13,594.28 489.47,574.69 C506.20,562.70 516.63,550.61 524.80,533.73 C535.45,511.73 539.84,490.77 540.02,461.00 C540.07,453.12 540.18,452.68 541.50,455.00 C542.29,456.38 542.95,458.62 542.98,460.00 C543.07,464.22 547.63,475.47 549.40,475.83 C552.38,476.42 565.24,472.95 569.90,470.28 C587.62,460.15 595.46,449.18 598.68,430.00 C600.82,417.27 599.82,406.15 595.84,398.24 C591.90,390.41 584.74,383.55 578.87,381.96 C573.47,380.50 565.16,381.27 560.22,383.68 C555.71,385.88 547.82,397.15 543.54,407.50 C541.94,411.35 540.28,414.92 539.84,415.43 C536.27,419.57 539.93,403.46 545.03,392.50 C546.88,388.53 550.92,382.90 553.35,380.88 C555.07,379.45 555.24,378.42 554.70,372.38 C554.37,368.60 553.66,364.15 553.13,362.50 C552.60,360.85 551.67,357.34 551.07,354.71 C550.11,350.47 548.02,345.78 541.42,333.00 C535.35,321.26 521.39,307.28 512.78,304.31 C506.52,302.16 493.42,300.22 476.38,298.93 C457.71,297.52 423.39,298.94 414.00,301.51 C410.98,302.34 405.12,303.70 401.00,304.54 C396.88,305.38 391.70,306.77 389.50,307.64 C375.76,313.05 373.00,315.05 373.00,319.62 C373.00,322.14 367.14,327.68 363.51,328.59 C361.17,329.17 356.75,328.84 349.00,327.48 C345.91,326.94 344.44,327.57 336.50,332.82 C326.45,339.47 317.87,347.54 314.64,353.38 C313.46,355.52 311.90,358.35 311.17,359.68 C309.01,363.61 308.65,371.91 310.36,378.50 C311.21,381.80 313.66,389.67 315.80,396.00 C320.66,410.34 322.71,418.58 323.60,427.33 L 324.29 434.17 L 337.40 433.45 C344.60,433.06 351.54,432.35 352.82,431.87 C354.09,431.39 355.87,431.00 356.78,431.00 C358.29,431.00 358.29,431.13 356.83,432.60 C355.07,434.35 344.82,437.47 335.50,439.07 C313.71,442.81 305.73,451.43 307.40,469.41 C308.65,482.80 314.58,490.79 327.58,496.60 C336.48,500.58 343.38,501.92 355.09,501.96 C377.57,502.04 398.76,492.63 408.77,478.12 C414.13,470.36 415.23,467.11 415.38,458.68 C415.49,452.23 415.17,450.88 412.68,447.10 C410.77,444.20 408.36,442.16 405.24,440.78 C395.74,436.58 378.35,440.55 372.69,448.21 C370.47,451.21 369.00,451.80 369.00,449.68 C369.00,447.43 375.69,440.41 381.20,436.87 C386.11,433.72 387.00,433.50 394.98,433.50 C401.78,433.50 404.41,433.95 408.04,435.74 C413.51,438.44 418.04,443.01 420.91,448.75 C422.08,451.09 423.25,453.00 423.51,453.00 C423.76,453.00 427.15,451.10 431.03,448.77 C439.38,443.77 454.13,430.30 460.73,421.65 C477.81,399.24 489.45,389.14 498.48,388.88 C507.62,388.62 512.47,390.75 511.72,394.70 C511.45,396.09 511.81,399.77 512.51,402.87 C515.09,414.25 516.48,429.93 516.43,447.00 C516.38,462.27 516.03,466.04 513.66,476.59 C510.28,491.64 508.12,497.60 503.57,504.46 C499.12,511.16 493.24,516.27 486.05,519.67 C481.53,521.81 478.97,522.30 472.01,522.39 C464.59,522.48 462.85,522.15 458.41,519.81 C448.77,514.73 439.62,503.18 435.97,491.50 C434.29,486.11 429.34,477.13 426.19,473.75 C422.96,470.29 420.66,470.26 419.12,473.65 C417.45,477.29 414.52,481.09 407.55,488.65 C400.65,496.11 391.24,501.53 378.00,505.67 C370.58,508.00 367.73,508.34 355.50,508.41 C343.25,508.47 340.62,508.18 334.50,506.10 C324.30,502.63 315.03,497.73 310.74,493.54 C306.20,489.13 302.00,481.19 302.00,477.06 C302.00,475.01 301.28,473.61 299.75,472.68 C288.22,465.70 283.04,463.00 281.17,463.00 C275.70,463.00 265.47,471.68 260.54,480.50 C253.20,493.66 252.21,506.65 257.39,522.09 C260.86,532.40 263.90,537.50 272.40,547.22 C287.36,564.33 303.72,571.02 327.57,569.77 C340.18,569.11 340.95,568.40 337.46,560.51 C334.37,553.51 332.03,546.98 332.01,545.25 C331.98,542.26 334.66,544.40 336.40,548.75 C340.38,558.74 353.31,572.21 367.00,580.63 C380.48,588.93 400.10,596.51 412.00,598.01 ZM 595.33 656.39 C597.20,658.37 599.07,660.00 599.49,660.00 C599.90,660.00 602.02,658.16 604.21,655.90 L 608.19 651.80 L 604.34 643.65 C600.64,635.79 600.50,635.13 600.53,625.00 C600.56,612.84 601.94,609.30 611.05,598.08 C616.23,591.70 616.26,591.64 614.74,588.58 C611.35,581.75 610.80,578.94 611.15,570.24 C611.46,562.39 611.93,560.52 615.29,553.72 C618.18,547.88 620.63,544.67 625.54,540.27 C629.09,537.10 632.00,533.75 632.00,532.83 C632.00,531.91 631.28,528.35 630.40,524.91 C627.84,514.93 629.77,500.47 635.08,489.91 C639.09,481.90 652.04,472.12 666.40,466.24 C682.39,459.69 702.61,457.47 718.50,460.51 L 719.26 460.65 C727.85,462.29 730.78,462.85 732.05,461.66 C732.74,461.01 732.94,459.83 733.31,458.03 C734.18,453.67 738.23,446.72 741.44,444.05 C744.22,441.74 744.26,443.65 741.51,447.80 C738.41,452.50 736.96,462.04 738.98,464.48 C741.08,467.00 743.46,466.21 746.56,461.98 C749.25,458.29 760.02,450.00 762.11,450.00 C763.99,450.00 762.88,452.01 760.25,453.39 C747.67,459.96 741.97,484.00 753.00,484.00 C757.96,484.00 776.03,491.30 774.60,492.73 C774.28,493.05 771.42,492.61 768.26,491.74 C747.53,486.03 735.54,486.64 718.74,494.25 C711.72,497.42 709.44,497.38 712.40,494.12 C715.70,490.47 726.08,485.82 734.82,484.08 C741.10,482.82 743.44,481.95 743.29,480.92 C742.33,474.43 741.33,472.54 738.47,471.84 C716.95,466.53 712.35,465.81 703.00,466.35 C692.49,466.96 680.02,470.46 673.77,474.55 C671.72,475.90 669.82,477.00 669.55,477.00 C669.28,477.00 666.32,478.88 662.97,481.18 C645.88,492.91 636.01,511.80 639.93,525.30 C644.09,539.61 653.15,550.42 670.50,561.76 C677.97,566.65 694.90,574.85 701.50,576.79 C703.70,577.43 707.97,578.71 711.00,579.61 C714.79,580.75 721.79,581.41 733.54,581.74 C760.18,582.49 777.45,579.28 796.50,570.05 C805.83,565.53 818.93,554.00 824.85,545.11 C833.62,531.93 837.93,518.55 837.98,504.33 C838.00,499.41 833.06,482.80 830.91,480.55 C830.41,480.03 830.00,478.86 830.00,477.96 C830.00,474.34 817.23,459.69 807.00,451.58 C783.90,433.27 760.20,424.67 728.76,423.17 L 714.57 422.50 L 711.72 418.25 C705.70,409.28 705.58,391.43 711.39,368.50 C719.10,338.01 720.43,329.03 719.63,312.50 C719.28,305.35 718.58,297.25 718.07,294.50 C717.55,291.75 716.58,286.35 715.91,282.50 C713.81,270.46 705.25,253.99 695.55,243.30 C680.54,226.76 660.36,220.32 640.97,225.87 C627.60,229.69 621.55,234.70 615.74,246.76 C612.60,253.29 612.50,253.90 612.56,266.00 C612.61,276.70 613.02,279.79 615.38,287.50 C618.31,297.05 621.24,306.91 623.09,313.50 C624.51,318.51 625.84,326.32 626.93,336.00 C627.40,340.12 628.25,345.79 628.83,348.58 C631.61,361.98 631.23,387.21 628.01,403.00 C627.51,405.48 626.56,410.20 625.91,413.50 C625.25,416.80 624.14,421.52 623.43,424.00 C622.72,426.48 621.17,431.88 619.99,436.00 C618.81,440.12 616.36,447.33 614.55,452.00 C611.71,459.31 608.38,468.30 603.07,483.00 C590.47,517.83 589.41,545.47 599.83,566.72 C601.72,570.59 602.12,572.28 601.30,573.10 C599.86,574.54 597.94,571.65 593.45,561.31 C591.59,557.03 589.65,553.38 589.14,553.21 C587.86,552.79 582.77,559.17 580.05,564.61 C578.80,567.11 576.48,572.98 574.89,577.65 C572.38,585.03 572.00,587.64 572.00,597.33 C572.00,606.42 572.49,610.17 574.62,617.50 C579.16,633.10 586.67,647.21 595.33,656.39 ZM 283.18 337.75 C284.27,339.54 285.63,341.00 286.19,341.00 C286.76,341.00 289.33,339.23 291.91,337.08 C304.76,326.31 333.96,311.00 341.62,311.00 C342.98,311.00 345.55,309.35 347.93,306.96 C351.42,303.43 352.44,302.94 355.92,303.15 C358.47,303.30 360.57,302.80 361.71,301.77 C362.69,300.89 368.52,297.67 374.66,294.62 C386.90,288.54 405.57,282.75 418.47,281.03 C422.85,280.44 428.25,279.42 430.47,278.75 C436.67,276.90 488.56,277.41 498.28,279.42 C513.04,282.47 517.46,285.67 523.11,297.36 C524.94,301.14 527.03,304.46 527.76,304.74 C530.51,305.79 536.68,293.91 538.30,284.46 C539.29,278.70 539.17,277.29 537.16,271.05 C533.90,260.95 526.69,252.10 516.89,246.19 C505.66,239.41 485.69,235.95 475.90,239.09 C474.03,239.69 471.90,240.36 471.17,240.59 C470.30,240.86 471.77,243.21 475.42,247.36 C484.30,257.48 482.40,261.02 473.14,251.64 C470.22,248.69 465.94,245.33 463.62,244.17 C459.02,241.87 445.50,239.17 444.35,240.32 C443.95,240.71 445.29,242.73 447.31,244.81 C450.44,248.01 452.21,252.00 450.50,252.00 C450.23,252.00 445.84,248.92 440.75,245.14 C428.63,236.16 412.73,228.86 399.00,225.95 C373.93,220.65 367.29,220.64 340.50,225.89 C334.67,227.04 330.15,228.80 320.50,233.72 C302.31,243.00 285.10,261.79 277.44,280.76 C273.14,291.42 271.91,305.69 274.40,316.00 C275.91,322.22 280.21,332.89 283.18,337.75 ZM 710.14 635.49 C726.70,637.37 748.84,636.14 762.50,632.56 C765.25,631.85 769.97,630.71 773.00,630.04 C781.69,628.12 802.58,620.38 808.00,617.08 C813.65,613.63 823.78,604.84 827.86,599.84 C836.67,589.03 842.77,573.11 841.66,563.78 C841.03,558.43 838.17,551.32 835.64,548.79 C834.08,547.23 833.37,547.75 824.74,556.68 C811.54,570.33 801.97,576.35 784.66,581.90 C760.14,589.75 737.00,590.56 709.00,584.52 C692.46,580.95 666.88,570.46 657.15,563.24 C650.77,558.52 640.55,548.92 639.22,546.42 C636.41,541.12 627.71,545.48 621.68,555.21 C618.04,561.10 620.54,580.56 626.13,589.78 C629.74,595.74 639.65,607.55 643.76,610.81 C648.99,614.96 664.54,623.28 672.71,626.32 C685.52,631.08 697.79,634.08 710.14,635.49 ZM 702.00 697.35 C711.92,698.85 744.76,696.85 755.00,694.11 C765.33,691.36 782.24,683.63 791.00,677.68 C804.11,668.77 816.30,655.13 821.69,643.36 C823.80,638.75 824.16,636.77 823.73,632.13 C823.03,624.49 821.21,620.70 818.55,621.32 C817.42,621.58 811.10,624.14 804.50,627.00 C779.56,637.82 770.61,640.23 743.00,643.56 C732.84,644.79 727.97,644.87 717.00,643.99 C676.09,640.73 649.91,630.33 629.22,609.13 C623.36,603.14 622.77,602.78 620.60,603.95 C614.34,607.30 609.08,618.03 609.02,627.57 C608.94,641.65 623.15,662.69 641.54,675.72 C657.86,687.28 674.24,693.14 702.00,697.35 ZM 385.00 752.12 C387.48,753.04 389.76,753.84 390.08,753.90 C390.40,753.95 392.33,751.59 394.36,748.64 C403.34,735.61 427.47,716.36 452.97,701.89 C468.22,693.24 486.54,681.52 493.77,675.79 C499.40,671.34 510.70,658.47 513.10,653.79 C515.66,648.78 515.49,645.38 512.36,639.10 C509.79,633.94 505.28,630.01 501.90,630.00 C499.97,630.00 498.18,634.05 493.97,648.00 C489.57,662.55 488.08,666.14 486.18,666.77 C484.20,667.43 484.81,660.98 487.86,648.86 C489.44,642.61 491.28,634.80 491.96,631.50 C492.64,628.20 493.60,624.47 494.10,623.20 C494.59,621.94 495.00,620.00 495.00,618.90 C495.00,616.83 497.83,606.44 503.50,587.73 C506.77,576.95 506.70,573.74 503.31,578.50 C492.63,593.50 481.21,605.18 471.67,610.86 C463.74,615.59 459.48,616.91 451.94,616.96 L 445.37 617.00 L 443.07 627.25 C440.46,638.89 437.86,647.79 434.51,656.50 C433.24,659.80 431.44,664.53 430.51,667.00 C428.65,671.97 427.27,674.00 425.76,674.00 C424.52,674.00 424.96,671.77 429.55,654.71 C431.59,647.13 432.96,640.63 432.61,640.27 C430.75,638.42 414.56,648.66 407.47,656.17 C389.47,675.26 378.83,704.10 379.12,733.00 C379.28,749.18 379.56,750.09 385.00,752.12 ZM 693.00 743.47 C697.67,744.40 720.63,743.76 727.50,742.51 C745.01,739.35 748.22,738.44 759.50,733.49 C761.15,732.77 763.69,731.80 765.14,731.34 C768.89,730.14 785.39,715.81 789.46,710.21 C791.34,707.62 793.81,702.68 794.94,699.23 C797.05,692.79 797.67,686.00 796.14,686.00 C795.66,686.00 792.20,687.40 788.44,689.10 C778.43,693.64 758.55,700.94 753.17,702.06 C745.32,703.69 709.56,704.38 698.00,703.12 C668.46,699.92 637.95,685.76 621.20,667.48 C617.94,663.92 614.63,661.00 613.85,661.00 C611.75,661.00 606.13,668.80 604.88,673.45 C601.39,686.39 610.39,703.93 628.27,719.05 C644.86,733.07 658.85,739.00 682.50,742.02 C687.45,742.66 692.17,743.31 693.00,743.47 ZM 395.47 756.96 C396.36,758.39 399.01,758.25 402.00,756.62 C403.38,755.86 406.98,753.90 410.00,752.25 C416.17,748.88 421.40,745.77 434.50,737.67 C439.45,734.62 449.12,728.74 456.00,724.61 C462.88,720.48 470.30,715.80 472.50,714.20 C474.70,712.61 479.20,709.83 482.50,708.02 C485.80,706.21 490.08,703.75 492.00,702.54 C519.07,685.55 541.25,676.96 565.50,674.08 C577.05,672.70 583.99,672.72 589.60,674.13 C592.06,674.75 594.37,674.96 594.73,674.60 C595.10,674.24 592.22,670.69 588.33,666.72 C575.35,653.44 570.67,644.31 564.09,619.38 C563.49,617.12 563.00,614.38 563.00,613.29 C563.00,612.18 561.95,610.84 560.57,610.21 C557.86,608.98 543.34,608.33 542.27,609.39 C541.89,609.77 542.38,611.30 543.35,612.79 C550.53,623.78 553.06,637.50 549.41,645.51 L 547.58 649.50 L 547.04 638.85 C546.53,628.85 546.25,627.72 542.43,620.35 C535.88,607.69 526.83,601.52 512.97,600.26 C506.27,599.66 505.43,600.42 504.20,608.30 C503.19,614.73 503.20,614.74 510.09,617.75 C521.21,622.59 526.35,632.56 524.15,645.04 C522.61,653.77 518.23,660.49 507.00,671.35 C494.82,683.13 484.29,690.21 455.50,705.97 C452.20,707.78 448.79,709.87 447.92,710.63 C447.05,711.38 446.03,712.00 445.65,712.00 C444.94,712.00 438.65,716.20 431.50,721.45 C420.44,729.57 416.46,732.54 416.00,733.03 C415.73,733.33 414.21,734.56 412.63,735.77 C409.59,738.11 398.77,749.98 396.30,753.71 C395.49,754.92 395.12,756.38 395.47,756.96 ZM 366.35 748.25 C367.88,751.97 369.73,752.81 373.34,751.42 C374.62,750.93 374.76,748.87 374.27,737.97 C373.01,709.54 381.35,681.63 398.87,655.70 C407.84,642.43 420.96,630.00 432.39,623.95 C436.86,621.59 438.97,618.13 438.99,613.14 C439.01,609.78 422.82,615.69 411.19,623.28 C400.56,630.23 392.41,637.52 382.20,649.23 C376.08,656.26 373.40,658.71 373.16,657.50 C372.97,656.56 373.30,655.30 373.91,654.69 C378.01,650.59 370.96,651.50 360.58,656.43 C356.44,658.39 352.78,660.00 352.44,660.00 C349.85,660.00 319.00,681.30 319.00,683.08 C319.00,683.87 320.08,684.27 325.35,685.45 C331.99,686.94 343.43,697.67 349.35,707.98 C352.72,713.85 358.64,727.57 359.92,732.50 C360.35,734.15 361.62,737.53 362.75,740.00 C363.87,742.47 365.49,746.19 366.35,748.25 ZM 202.33 433.10 C211.66,436.28 213.35,435.84 217.96,429.05 C222.43,422.48 222.69,421.42 220.49,418.99 C219.30,417.67 219.21,416.70 220.06,414.26 C221.22,410.94 224.28,409.25 230.00,408.79 C233.29,408.52 233.87,407.88 239.75,398.06 C243.19,392.32 246.00,386.80 246.00,385.79 C246.00,380.65 237.41,371.65 228.20,367.13 C215.32,360.83 209.11,360.77 203.39,366.88 C201.53,368.87 195.06,378.34 189.01,387.91 C176.51,407.69 175.90,409.82 180.84,416.60 C186.50,424.38 194.27,430.35 202.33,433.10 ZM 404.48 767.93 C405.18,770.13 407.87,770.62 410.76,769.07 C411.72,768.56 416.10,766.71 420.50,764.96 C424.90,763.21 428.97,761.40 429.54,760.94 C430.11,760.48 434.84,757.87 440.04,755.13 C445.24,752.40 453.55,747.85 458.50,745.03 C469.17,738.96 501.80,722.77 507.50,720.71 C521.02,715.85 528.99,713.10 532.50,712.09 C543.17,709.02 565.47,709.04 572.50,712.13 C576.24,713.78 585.06,719.81 586.81,721.92 C589.39,725.04 591.84,731.60 592.53,737.26 C592.92,740.43 593.68,743.30 594.23,743.64 C594.78,743.98 597.68,741.80 600.68,738.79 C605.00,734.48 606.26,732.49 606.69,729.31 C607.95,719.90 593.99,704.56 580.43,700.44 C559.24,694.00 525.76,701.84 485.10,722.74 C473.77,728.57 463.38,734.10 462.00,735.03 C460.62,735.97 455.90,738.66 451.50,741.02 C447.10,743.38 441.02,746.65 438.00,748.30 C429.11,753.13 409.25,763.00 408.34,763.03 C406.10,763.12 403.85,765.96 404.48,767.93 ZM 275.23 411.13 C279.66,412.70 282.65,412.93 294.00,412.58 C308.32,412.14 314.00,410.78 314.00,407.80 C314.00,405.28 307.96,387.74 306.58,386.24 C305.65,385.25 304.59,385.59 301.42,387.92 C296.00,391.91 288.15,394.87 282.10,395.22 C275.69,395.58 275.45,393.90 281.70,392.44 C288.92,390.76 293.74,388.42 299.67,383.74 C304.67,379.79 305.00,379.26 304.53,376.00 C304.25,374.08 304.02,371.21 304.01,369.63 C304.01,369.53 304.01,369.42 304.01,369.32 C304.01,368.40 304.01,367.78 303.70,367.48 C303.08,366.88 301.19,367.58 295.52,369.70 C295.22,369.82 294.91,369.93 294.58,370.06 C289.38,372.00 287.35,372.21 277.75,371.75 L 266.83 371.23 L 264.90 374.37 C260.08,382.20 259.49,392.39 263.38,400.35 C266.64,407.01 268.59,408.78 275.23,411.13 ZM 466.27 508.52 C470.28,510.26 472.82,510.32 478.81,508.83 C482.51,507.91 484.87,506.28 490.02,501.08 C503.18,487.81 513.50,459.84 506.79,455.63 C504.07,453.93 496.15,456.57 491.00,460.91 C486.87,464.38 481.60,472.70 479.54,479.00 L 478.72 481.50 L 478.29 478.68 C478.05,477.13 478.31,474.55 478.87,472.95 C480.40,468.55 478.66,468.45 472.42,472.60 C457.82,482.29 454.22,503.28 466.27,508.52 ZM 370.50 796.73 C372.15,797.40 376.05,797.83 379.17,797.67 C394.43,796.90 405.64,779.78 399.25,767.00 C397.20,762.91 385.11,755.06 380.79,755.02 C375.88,754.98 367.29,758.91 363.93,762.73 C356.84,770.81 355.35,778.81 359.44,786.88 C361.89,791.72 364.97,794.47 370.50,796.73 ZM 353.42 756.96 C355.67,758.54 357.85,759.87 358.28,759.91 C360.06,760.11 360.03,756.95 358.22,754.32 C357.16,752.77 353.09,746.55 349.19,740.50 C330.94,712.18 319.33,704.72 300.10,708.99 C292.29,710.72 290.08,712.09 285.50,718.03 C283.30,720.89 281.05,723.74 280.50,724.36 C279.04,726.02 274.00,733.87 274.00,734.48 C274.00,735.64 276.39,734.86 280.82,732.25 C288.31,727.85 297.64,725.00 304.54,725.00 C313.82,725.00 321.63,729.34 336.92,743.00 C343.76,749.11 351.18,755.39 353.42,756.96 ZM 272.32 365.96 C273.13,366.80 276.14,367.05 282.00,366.76 C288.70,366.43 292.12,365.66 298.16,363.12 C305.53,360.01 305.93,359.67 308.58,354.19 C313.20,344.65 328.74,330.40 341.50,324.00 C344.97,322.26 346.26,317.42 343.53,316.37 C341.40,315.56 331.28,319.28 322.00,324.29 C306.09,332.89 299.48,337.31 288.09,346.97 C275.40,357.72 270.30,363.87 272.32,365.96 ZM 424.20 465.80 C426.20,467.80 429.70,467.17 436.90,463.55 C451.28,456.31 465.25,443.88 483.52,422.10 C491.99,411.99 497.67,406.14 501.03,404.08 C506.17,400.91 507.06,398.85 504.96,394.93 C502.15,389.67 490.96,396.39 481.73,408.87 C475.59,417.17 457.50,435.44 448.31,442.62 C443.76,446.17 436.77,450.93 432.77,453.19 C428.77,455.45 424.94,458.00 424.25,458.84 C422.67,460.79 422.64,464.24 424.20,465.80 ZM 338.07 419.43 C333.55,423.77 330.98,422.34 333.33,416.79 C335.81,410.94 338.30,409.56 347.35,409.00 C353.82,408.60 355.46,408.19 355.31,407.00 C354.85,403.25 350.76,388.59 348.50,382.59 C341.84,364.89 331.87,357.64 323.97,364.75 C320.82,367.59 318.11,375.79 318.04,382.75 C317.99,387.07 316.26,386.90 315.43,382.49 C314.47,377.39 315.70,371.20 318.79,365.50 C322.00,359.59 326.36,357.00 333.16,357.00 C337.03,357.00 338.54,357.60 342.16,360.61 C347.46,365.01 351.05,372.58 357.51,393.00 C362.42,408.51 364.79,414.14 366.69,414.74 C367.34,414.95 368.86,414.14 370.07,412.93 C372.08,410.92 372.22,410.09 371.63,403.14 C371.05,396.25 371.13,395.70 372.56,397.13 C373.57,398.15 374.33,401.34 374.69,406.14 L 375.26 413.57 L 371.59 416.78 C369.58,418.55 367.03,420.00 365.93,420.00 C364.82,420.00 362.17,418.10 360.03,415.78 C356.17,411.61 356.11,411.59 354.05,413.45 C352.87,414.52 349.54,415.67 346.36,416.10 C342.40,416.64 339.97,417.61 338.07,419.43 ZM 419.17 409.79 C416.72,412.88 415.12,413.99 413.17,413.97 C409.08,413.92 407.47,412.52 404.94,406.78 C403.07,402.56 402.52,399.25 402.19,390.26 L 401.78 379.02 L 405.29 375.51 C408.26,372.54 409.26,372.10 411.90,372.63 C415.77,373.40 415.88,372.18 412.46,366.35 C409.45,361.21 406.54,360.16 401.86,362.54 L 398.50 364.24 L 401.44 361.12 C408.57,353.54 415.14,360.00 419.98,379.37 C421.27,384.57 422.25,391.81 422.34,396.90 C422.50,405.32 422.40,405.69 419.17,409.79 ZM 384.00 352.49 C384.00,353.32 383.55,354.00 383.00,354.00 C380.30,354.00 382.99,339.48 387.50,329.70 C391.52,321.01 396.58,315.96 403.66,313.61 C412.92,310.54 424.60,311.76 428.71,316.24 C432.08,319.91 436.64,328.13 438.30,333.50 C440.58,340.90 441.32,347.68 439.94,348.54 C438.39,349.50 437.52,347.90 436.06,341.40 C433.01,327.73 419.86,320.49 403.88,323.67 C398.69,324.70 391.04,333.18 388.15,341.08 C386.86,344.61 385.40,348.28 384.90,349.24 C384.41,350.19 384.00,351.65 384.00,352.49 ZM 285.50 453.90 C295.00,459.74 297.92,460.76 298.66,458.50 C298.84,457.95 294.83,454.75 289.75,451.38 C284.66,448.02 271.61,439.36 260.75,432.15 C239.04,417.73 231.90,413.73 228.75,414.19 C225.57,414.66 225.54,416.70 228.69,418.47 C230.23,419.35 232.70,420.83 234.16,421.78 C235.63,422.73 239.00,424.80 241.66,426.39 C244.32,427.98 250.84,432.12 256.15,435.61 C261.46,439.09 267.99,443.24 270.65,444.84 C273.32,446.44 280.00,450.52 285.50,453.90 ZM 478.79 538.97 C473.45,539.54 468.95,539.93 468.79,539.85 C468.63,539.77 467.15,539.54 465.50,539.34 C456.72,538.28 448.39,533.82 443.67,527.64 C438.96,521.46 441.04,521.15 447.47,527.08 C453.47,532.61 460.48,534.46 472.00,533.54 C490.22,532.08 501.17,527.10 507.67,517.32 C511.05,512.21 513.00,510.70 513.00,513.16 C513.00,515.29 506.73,524.44 501.62,529.75 C495.57,536.04 491.67,537.61 478.79,538.97 ZM 464.67 398.01 C460.54,402.41 456.90,406.00 456.58,406.00 C453.55,406.00 463.62,393.36 473.66,384.56 C484.81,374.78 491.03,372.49 503.55,373.53 C513.89,374.39 519.36,376.90 523.31,382.58 C526.28,386.86 528.15,395.00 526.16,395.00 C525.55,395.00 524.40,393.76 523.61,392.25 C521.57,388.38 514.11,381.55 510.28,380.05 C505.65,378.23 492.26,378.18 488.00,379.97 C481.73,382.60 472.34,389.86 464.67,398.01 ZM 352.06 323.56 C355.50,327.23 362.16,327.00 366.08,323.08 C368.06,321.09 369.00,319.15 369.00,317.03 C369.00,306.68 356.49,301.29 350.85,309.20 C348.13,313.03 348.72,320.01 352.06,323.56 ZM 573.74 442.20 C569.50,449.40 567.36,450.13 570.92,443.16 C574.59,435.96 574.81,426.95 571.39,423.53 C567.51,419.66 558.06,424.87 557.95,430.94 C557.93,432.35 557.29,434.85 556.54,436.50 L 555.16 439.50 L 555.08 435.22 C554.98,430.01 558.26,419.79 561.58,414.93 C565.50,409.20 575.97,404.58 580.74,406.48 C582.08,407.01 581.28,407.64 577.42,409.10 C569.60,412.05 565.25,418.00 570.90,418.00 C574.75,418.00 576.50,421.72 576.50,429.86 C576.50,436.40 576.10,438.18 573.74,442.20 ZM 241.00 388.00 C239.90,389.10 237.76,389.97 236.25,389.94 C231.48,389.84 223.49,385.44 217.64,379.69 C212.91,375.03 212.00,373.56 212.00,370.62 C212.00,368.70 212.45,366.84 213.00,366.50 C213.57,366.15 214.00,367.04 214.00,368.60 C214.00,370.48 215.27,372.52 218.14,375.25 C221.55,378.49 222.73,379.06 224.89,378.50 C226.32,378.13 229.41,377.59 231.75,377.31 C235.59,376.85 236.34,377.14 239.50,380.30 C243.55,384.35 243.73,385.27 241.00,388.00 ZM 468.00 355.42 C465.52,357.38 463.16,358.98 462.75,358.99 C460.92,359.01 462.33,356.09 466.36,351.48 C471.53,345.57 475.92,337.34 477.45,330.70 C478.73,325.18 480.34,324.13 480.85,328.50 C481.82,336.94 476.04,349.04 468.00,355.42 ZM 459.70 346.25 C458.03,348.86 456.29,351.00 455.83,351.00 C455.78,351.00 455.72,351.00 455.67,351.00 C455.47,351.01 455.31,351.01 455.22,350.93 C454.92,350.67 455.47,349.41 457.96,343.78 C458.14,343.37 458.33,342.94 458.53,342.49 C461.83,335.02 462.02,334.04 461.41,327.50 C461.01,323.13 459.82,318.62 458.27,315.50 L 455.77 310.50 L 459.01 313.50 C463.51,317.67 465.00,321.78 465.00,330.03 C465.00,337.45 464.66,338.49 459.70,346.25 Z" fill="rgb(14,9,7)"/>
<path d="M 395.47 756.96 C395.12,756.38 395.49,754.92 396.30,753.71 C398.77,749.98 409.59,738.11 412.63,735.77 C414.21,734.56 415.73,733.33 416.00,733.03 C416.46,732.54 420.44,729.57 431.50,721.45 C438.65,716.20 444.94,712.00 445.65,712.00 C446.03,712.00 447.05,711.38 447.92,710.63 C448.79,709.87 452.20,707.78 455.50,705.97 C484.29,690.21 494.82,683.13 507.00,671.35 C518.23,660.49 522.61,653.77 524.15,645.04 C526.35,632.56 521.21,622.59 510.09,617.75 C503.20,614.74 503.19,614.73 504.20,608.30 C505.43,600.42 506.27,599.66 512.97,600.26 C526.83,601.52 535.88,607.69 542.43,620.35 C546.25,627.72 546.53,628.85 547.04,638.85 L 547.58 649.50 L 549.41 645.51 C553.06,637.50 550.53,623.78 543.35,612.79 C542.38,611.30 541.89,609.77 542.27,609.39 C543.34,608.33 557.86,608.98 560.57,610.21 C561.95,610.84 563.00,612.18 563.00,613.29 C563.00,614.38 563.49,617.12 564.09,619.38 C570.67,644.31 575.35,653.44 588.33,666.72 C592.22,670.69 595.10,674.24 594.73,674.60 C594.37,674.96 592.06,674.75 589.60,674.13 C583.99,672.72 577.05,672.70 565.50,674.08 C541.25,676.96 519.07,685.55 492.00,702.54 C490.08,703.75 485.80,706.21 482.50,708.02 C479.20,709.83 474.70,712.61 472.50,714.20 C470.30,715.80 462.88,720.48 456.00,724.61 C449.12,728.74 439.45,734.62 434.50,737.67 C421.40,745.77 416.17,748.88 410.00,752.25 C406.98,753.90 403.38,755.86 402.00,756.62 C399.01,758.25 396.36,758.39 395.47,756.96 ZM 366.35 748.25 C365.49,746.19 363.87,742.47 362.75,740.00 C361.62,737.53 360.35,734.15 359.92,732.50 C358.64,727.57 352.72,713.85 349.35,707.98 C343.43,697.67 331.99,686.94 325.35,685.45 C320.08,684.27 319.00,683.87 319.00,683.08 C319.00,681.30 349.85,660.00 352.44,660.00 C352.78,660.00 356.44,658.39 360.58,656.43 C370.96,651.50 378.01,650.59 373.91,654.69 C373.30,655.30 372.97,656.56 373.16,657.50 C373.40,658.71 376.08,656.26 382.20,649.23 C392.41,637.52 400.56,630.23 411.19,623.28 C422.82,615.69 439.01,609.78 438.99,613.14 C438.97,618.13 436.86,621.59 432.39,623.95 C420.96,630.00 407.84,642.43 398.87,655.70 C381.35,681.63 373.01,709.54 374.27,737.97 C374.76,748.87 374.62,750.93 373.34,751.42 C369.73,752.81 367.88,751.97 366.35,748.25 ZM 202.33 433.10 C194.27,430.35 186.50,424.38 180.84,416.60 C175.90,409.82 176.51,407.69 189.01,387.91 C195.06,378.34 201.53,368.87 203.39,366.88 C209.11,360.77 215.32,360.83 228.20,367.13 C237.41,371.65 246.00,380.65 246.00,385.79 C246.00,386.80 243.19,392.32 239.75,398.06 C233.87,407.88 233.29,408.52 230.00,408.79 C224.28,409.25 221.22,410.94 220.06,414.26 C219.21,416.70 219.30,417.67 220.49,418.99 C222.69,421.42 222.43,422.48 217.96,429.05 C213.35,435.84 211.66,436.28 202.33,433.10 ZM 203.42 432.04 C211.49,434.92 212.45,434.67 216.45,428.65 C219.95,423.36 220.95,420.00 219.00,420.00 C217.53,420.00 217.78,415.32 219.43,412.13 C220.83,409.43 226.12,407.00 230.62,407.00 C231.87,407.00 234.18,404.40 237.50,399.25 C240.25,394.99 242.63,391.24 242.78,390.92 C242.93,390.59 240.60,390.53 237.61,390.78 C232.82,391.18 231.45,390.83 226.33,387.91 C223.12,386.09 218.14,382.24 215.25,379.36 C209.56,373.70 208.64,370.39 211.56,366.22 C213.03,364.12 212.99,364.00 210.81,364.03 C209.54,364.05 207.76,364.63 206.86,365.31 C203.75,367.68 199.17,374.27 186.21,395.00 C184.32,398.02 181.93,401.72 180.89,403.21 C178.23,407.02 178.56,410.80 181.99,415.86 C186.96,423.19 194.46,428.86 203.42,432.04 ZM 404.48 767.93 C403.85,765.96 406.10,763.12 408.34,763.03 C409.25,763.00 429.11,753.13 438.00,748.30 C441.02,746.65 447.10,743.38 451.50,741.02 C455.90,738.66 460.62,735.97 462.00,735.03 C463.38,734.10 473.77,728.57 485.10,722.74 C525.76,701.84 559.24,694.00 580.43,700.44 C593.99,704.56 607.95,719.90 606.69,729.31 C606.26,732.49 605.00,734.48 600.68,738.79 C597.68,741.80 594.78,743.98 594.23,743.64 C593.68,743.30 592.92,740.43 592.53,737.26 C591.84,731.60 589.39,725.04 586.81,721.92 C585.06,719.81 576.24,713.78 572.50,712.13 C565.47,709.04 543.17,709.02 532.50,712.09 C528.99,713.10 521.02,715.85 507.50,720.71 C501.80,722.77 469.17,738.96 458.50,745.03 C453.55,747.85 445.24,752.40 440.04,755.13 C434.84,757.87 430.11,760.48 429.54,760.94 C428.97,761.40 424.90,763.21 420.50,764.96 C416.10,766.71 411.72,768.56 410.76,769.07 C407.87,770.62 405.18,770.13 404.48,767.93 ZM 466.27 508.52 C454.22,503.28 457.82,482.29 472.42,472.60 C478.66,468.45 480.40,468.55 478.87,472.95 C478.31,474.55 478.05,477.13 478.29,478.68 L 478.72 481.50 L 479.54 479.00 C481.60,472.70 486.87,464.38 491.00,460.91 C496.15,456.57 504.07,453.93 506.79,455.63 C513.50,459.84 503.18,487.81 490.02,501.08 C484.87,506.28 482.51,507.91 478.81,508.83 C472.82,510.32 470.28,510.26 466.27,508.52 ZM 466.31 507.09 C471.92,510.59 481.97,507.81 488.92,500.83 C496.75,492.97 504.73,477.32 506.91,465.53 L 507.04 464.82 C507.88,460.27 508.15,458.85 507.56,458.05 C507.27,457.65 506.76,457.40 505.99,457.00 C502.65,455.21 496.12,457.82 490.85,463.07 C484.49,469.41 482.38,473.72 480.16,485.00 C479.74,487.12 478.88,488.50 477.98,488.50 C476.77,488.50 476.53,486.89 476.65,479.76 L 476.80 471.02 L 472.41 474.18 C466.43,478.47 465.61,479.53 462.53,486.88 C460.42,491.92 460.01,494.12 460.55,497.38 C461.47,502.92 462.55,504.75 466.31,507.09 ZM 353.42 756.96 C351.18,755.39 343.76,749.11 336.92,743.00 C321.63,729.34 313.82,725.00 304.54,725.00 C297.64,725.00 288.31,727.85 280.82,732.25 C276.39,734.86 274.00,735.64 274.00,734.48 C274.00,733.87 279.04,726.02 280.50,724.36 C281.05,723.74 283.30,720.89 285.50,718.03 C290.08,712.09 292.29,710.72 300.10,708.99 C319.33,704.72 330.94,712.18 349.19,740.50 C353.09,746.55 357.16,752.77 358.22,754.32 C360.03,756.95 360.06,760.11 358.28,759.91 C357.85,759.87 355.67,758.54 353.42,756.96 ZM 416.95 414.03 C413.79,415.72 409.48,415.13 407.19,412.70 C403.52,408.79 400.98,399.57 400.82,389.53 C400.73,383.83 401.16,379.55 401.96,377.98 C404.27,373.53 407.24,371.00 410.17,371.00 C411.73,371.00 413.00,370.48 413.00,369.84 C413.00,367.75 407.93,362.00 406.08,362.00 C402.98,362.00 399.10,365.92 397.86,370.30 C396.41,375.39 395.28,376.88 394.47,374.77 C393.31,371.77 396.12,364.64 399.98,360.79 C406.34,354.43 411.49,356.00 416.35,365.79 C420.74,374.65 424.76,394.83 423.59,402.14 C422.88,406.61 419.50,412.66 416.95,414.03 ZM 419.17 409.79 C422.40,405.69 422.50,405.32 422.34,396.90 C422.25,391.81 421.27,384.57 419.98,379.37 C415.14,360.00 408.57,353.54 401.44,361.12 L 398.50 364.24 L 401.86 362.54 C406.54,360.16 409.45,361.21 412.46,366.35 C415.88,372.18 415.77,373.40 411.90,372.63 C409.26,372.10 408.26,372.54 405.29,375.51 L 401.78 379.02 L 402.19 390.26 C402.52,399.25 403.07,402.56 404.94,406.78 C407.47,412.52 409.08,413.92 413.17,413.97 C415.12,413.99 416.72,412.88 419.17,409.79 ZM 571.76 446.75 C569.87,448.77 567.00,449.81 567.00,448.48 C567.00,448.20 568.18,445.70 569.63,442.94 C573.02,436.44 573.74,430.33 571.59,426.17 C569.57,422.27 566.35,421.99 562.32,425.38 C559.90,427.42 559.22,429.23 557.57,437.88 C556.51,443.45 555.34,448.00 554.95,448.00 C553.54,448.00 553.00,439.76 554.01,433.46 C555.26,425.59 558.27,417.67 561.71,413.14 C566.38,407.00 578.63,403.12 584.09,406.05 C586.80,407.50 585.54,409.00 581.64,409.00 C578.48,409.00 569.00,414.08 569.00,415.77 C569.00,416.22 570.46,417.02 572.24,417.54 C576.42,418.78 577.97,422.03 577.96,429.50 C577.96,435.94 575.50,442.77 571.76,446.75 ZM 573.74 442.20 C576.10,438.18 576.50,436.40 576.50,429.86 C576.50,421.72 574.75,418.00 570.90,418.00 C565.25,418.00 569.60,412.05 577.42,409.10 C581.28,407.64 582.08,407.01 580.74,406.48 C575.97,404.58 565.50,409.20 561.58,414.93 C558.26,419.79 554.98,430.01 555.08,435.22 L 555.16 439.50 L 556.54 436.50 C557.29,434.85 557.93,432.35 557.95,430.94 C558.06,424.87 567.51,419.66 571.39,423.53 C574.81,426.95 574.59,435.96 570.92,443.16 C567.36,450.13 569.50,449.40 573.74,442.20 ZM 241.00 388.00 C243.73,385.27 243.55,384.35 239.50,380.30 C236.34,377.14 235.59,376.85 231.75,377.31 C229.41,377.59 226.32,378.13 224.89,378.50 C222.73,379.06 221.55,378.49 218.14,375.25 C215.27,372.52 214.00,370.48 214.00,368.60 C214.00,367.04 213.57,366.15 213.00,366.50 C212.45,366.84 212.00,368.70 212.00,370.62 C212.00,373.56 212.91,375.03 217.64,379.69 C223.49,385.44 231.48,389.84 236.25,389.94 C237.76,389.97 239.90,389.10 241.00,388.00 ZM 457.96 350.25 C456.25,352.31 454.17,354.00 453.34,354.00 C452.51,354.00 452.01,353.66 452.22,353.25 C459.68,338.72 460.43,336.50 460.26,329.26 C460.09,321.40 457.82,314.86 454.15,311.60 C451.65,309.38 451.39,308.00 453.47,308.00 C456.14,308.00 461.88,314.06 464.56,319.71 C466.82,324.49 467.10,326.09 466.54,330.89 C465.79,337.32 462.46,344.82 457.96,350.25 ZM 219.53 374.47 C223.42,378.36 224.56,378.65 227.44,376.47 C229.71,374.75 233.33,374.57 236.07,376.04 C239.29,377.76 238.24,375.42 234.52,372.58 C231.16,370.02 218.21,364.00 216.06,364.00 C215.48,364.00 215.20,365.01 215.43,366.25 C215.66,367.49 215.88,369.05 215.93,369.72 C215.97,370.39 217.59,372.52 219.53,374.47 ZM 801.37 447.32 C795.10,442.92 788.57,439.00 787.22,439.00 C786.52,439.00 783.36,437.69 780.20,436.10 C773.28,432.61 756.95,427.55 748.00,426.13 C744.42,425.57 735.76,424.87 728.75,424.57 C713.96,423.96 712.19,423.20 709.20,416.20 C705.12,406.66 704.42,387.63 707.92,381.29 C708.25,380.69 708.97,378.30 709.97,374.52 C705.65,394.55 706.24,410.08 711.72,418.25 L 714.57 422.50 L 728.76 423.17 C757.65,424.55 780.01,431.92 801.37,447.32 ZM 459.70 346.25 C464.66,338.49 465.00,337.45 465.00,330.03 C465.00,321.78 463.51,317.67 459.01,313.50 L 455.77 310.50 L 458.27 315.50 C459.82,318.62 461.01,323.13 461.41,327.50 C462.02,334.04 461.83,335.02 458.53,342.49 C458.33,342.94 458.14,343.37 457.96,343.78 C455.47,349.41 454.92,350.67 455.22,350.93 C455.31,351.01 455.47,351.01 455.67,351.00 C455.72,351.00 455.78,351.00 455.83,351.00 C456.29,351.00 458.03,348.86 459.70,346.25 ZM 478.79 538.97 C486.88,538.12 491.42,537.18 495.18,535.05 C493.33,536.17 491.35,537.05 488.98,537.83 C481.86,540.18 467.38,541.41 462.26,540.09 C459.20,539.30 454.79,536.91 450.93,534.17 C455.18,536.86 460.26,538.71 465.50,539.34 C467.15,539.54 468.63,539.77 468.79,539.85 C468.95,539.93 473.45,539.54 478.79,538.97 ZM 384.00 352.49 C384.00,351.65 384.41,350.19 384.90,349.24 C385.40,348.28 386.86,344.61 388.15,341.08 C389.15,338.34 390.72,335.54 392.56,333.01 C388.79,338.53 385.87,345.73 385.12,352.61 C384.51,358.28 382.83,360.60 381.62,357.46 C380.70,355.05 380.87,347.20 381.86,346.59 C382.11,346.43 382.40,345.78 382.67,344.86 C381.65,350.04 381.59,354.00 383.00,354.00 C383.55,354.00 384.00,353.32 384.00,352.49 ZM 394.67 626.20 C398.46,623.15 402.41,620.60 408.50,617.06 C412.35,614.82 416.83,611.89 418.46,610.54 C421.99,607.62 421.78,607.51 410.04,605.96 C409.60,605.90 409.15,605.84 408.69,605.77 C411.10,606.05 413.53,606.18 415.94,606.16 C427.48,606.04 427.34,606.58 413.86,614.17 C404.07,619.68 399.10,622.68 394.67,626.20 ZM 755.53 484.34 C755.91,484.39 756.31,484.44 756.73,484.49 C762.71,485.16 775.97,490.52 777.40,492.84 C778.72,494.97 775.78,495.07 771.56,493.03 C770.76,492.64 769.93,492.28 769.05,491.95 C771.89,492.68 774.31,493.03 774.60,492.73 C775.85,491.49 762.33,485.80 755.53,484.34 ZM 758.52 489.41 C755.31,488.94 751.60,488.59 747.21,488.32 C743.52,488.10 740.33,488.12 737.24,488.47 C743.85,487.51 750.56,487.84 758.52,489.41 ZM 393.70 601.89 C391.80,601.19 389.70,600.42 388.00,599.81 C387.16,599.51 386.16,599.12 385.06,598.66 C385.65,598.88 386.06,599.01 386.23,599.01 C386.93,599.02 389.82,600.10 392.65,601.42 C393.00,601.58 393.35,601.74 393.70,601.89 ZM 383.23 342.28 C383.26,342.12 383.28,341.95 383.31,341.78 C383.72,338.77 385.19,334.64 387.08,330.64 C385.49,334.28 384.15,338.47 383.23,342.28 ZM 748.91 467.47 C751.07,461.74 755.08,456.09 760.25,453.39 C755.70,455.76 751.31,461.50 748.91,467.47 ZM 748.68 482.00 C749.69,482.97 751.22,483.58 753.53,484.02 C753.34,484.01 753.16,484.00 753.00,484.00 C751.06,484.00 749.64,483.26 748.68,482.00 ZM 718.68 335.38 C719.74,327.68 720.01,320.45 719.63,312.50 C720.03,320.80 719.90,327.20 718.68,335.38 ZM 439.51 337.96 C440.87,343.24 441.25,347.73 439.94,348.54 C441.03,347.86 440.80,343.45 439.51,337.96 ZM 425.96 314.22 C421.93,312.13 415.61,311.40 409.45,312.27 C413.83,311.58 418.40,311.74 422.57,312.87 C423.84,313.22 424.94,313.64 425.96,314.22 ZM 817.96 461.68 C824.57,468.55 830.00,475.60 830.00,477.96 C830.00,475.66 824.50,468.54 817.96,461.68 ZM 397.04 317.03 C395.28,318.33 393.68,319.92 392.20,321.80 C393.10,320.57 393.99,319.53 394.82,318.78 C395.51,318.16 396.25,317.57 397.04,317.03 ZM 499.68 531.66 C500.31,531.08 500.95,530.44 501.62,529.75 C503.84,527.44 506.28,524.40 508.34,521.53 C505.90,524.97 502.95,528.60 500.60,530.82 C500.29,531.11 499.99,531.39 499.68,531.66 ZM 442.37 525.83 C441.54,524.71 441.00,523.86 441.00,523.65 C441.00,523.45 441.04,523.30 441.11,523.19 C441.10,523.65 441.51,524.53 442.37,525.83 ZM 435.76 327.32 C434.75,325.27 433.59,323.18 432.41,321.30 C432.85,321.97 433.30,322.71 433.77,323.50 C434.46,324.66 435.13,325.95 435.76,327.32 ZM 374.39 593.86 C371.54,592.49 368.95,591.17 367.27,590.20 C368.92,591.14 371.58,592.50 374.39,593.86 ZM 513.00 513.12 C512.99,511.92 512.50,511.70 511.60,512.40 C512.51,511.69 513.00,511.90 513.00,513.10 Z" fill="rgb(171,80,77)"/>
<path d="M 0.00 0.00 L 1024.00 0.00 L 1024.00 1024.00 L 0.00 1024.00 ZM 391.00 807.01 C395.58,805.74 404.10,798.21 407.46,792.47 C409.11,789.65 410.39,785.62 410.81,781.87 L 411.50 775.81 L 421.00 772.52 C438.31,766.52 451.69,760.40 493.73,739.20 C504.85,733.59 514.44,729.00 515.03,729.00 C515.62,729.00 517.53,728.26 519.28,727.36 C521.02,726.45 524.71,725.14 527.48,724.43 C530.24,723.73 536.10,722.17 540.50,720.96 C551.54,717.94 561.79,717.95 570.09,720.97 C582.16,725.38 584.45,729.11 584.51,744.49 C584.56,754.22 584.77,755.52 586.34,755.83 C589.95,756.52 599.57,750.45 611.66,739.86 C618.47,733.89 624.33,729.00 624.66,729.00 C625.00,729.00 628.93,731.41 633.39,734.36 C647.47,743.66 653.47,746.23 672.50,751.08 C683.09,753.77 686.73,754.20 703.50,754.70 C721.54,755.24 723.11,755.14 734.50,752.61 C751.98,748.73 761.22,744.87 775.59,735.45 C795.59,722.33 805.24,707.37 805.47,689.10 L 805.58 680.70 L 810.99 677.23 C818.95,672.13 826.19,664.05 830.58,655.40 C834.42,647.84 834.46,647.65 834.38,636.63 C834.31,628.37 833.77,623.91 832.28,619.33 L 830.26 613.17 L 835.13 608.37 C840.90,602.68 847.23,590.41 849.57,580.38 C852.74,566.77 851.17,552.19 845.29,540.59 C844.46,538.95 843.87,537.94 843.55,536.86 C842.87,534.57 843.42,531.91 845.48,521.95 C845.70,520.89 845.94,519.74 846.20,518.50 C847.82,510.63 846.57,492.01 843.97,485.21 C840.02,474.89 837.30,469.52 832.58,462.78 C827.29,455.20 815.35,443.73 809.85,440.92 C807.81,439.88 805.84,438.55 805.48,437.96 C804.26,436.00 776.15,423.50 768.00,421.31 C752.04,417.00 742.47,415.00 733.00,413.99 C727.22,413.37 722.19,412.56 721.80,412.18 C721.42,411.81 720.40,408.82 719.55,405.54 C716.36,393.30 718.11,368.95 723.32,353.00 C724.13,350.52 726.02,341.98 727.51,334.00 C729.96,320.94 730.17,318.12 729.60,305.65 C729.17,296.33 728.31,289.63 726.97,285.15 C719.18,259.13 713.26,247.28 701.52,234.23 C697.41,229.66 687.49,222.00 685.68,222.00 C685.34,222.00 682.60,220.88 679.60,219.50 C667.37,213.91 643.45,213.09 632.75,217.90 C630.41,218.95 627.15,220.11 625.50,220.48 C620.35,221.64 608.03,232.03 603.54,239.00 C600.36,243.96 596.00,258.44 596.00,264.10 C596.00,272.32 599.17,284.76 605.93,303.00 C607.66,307.67 610.00,314.42 611.13,318.00 C612.26,321.58 613.64,325.62 614.20,327.00 C615.64,330.56 617.89,339.09 620.10,349.40 C623.05,363.22 622.18,388.14 618.13,405.50 C617.62,407.70 616.75,411.52 616.19,414.00 C613.95,424.06 610.67,435.59 609.49,437.48 C608.81,438.59 607.22,442.65 605.97,446.50 C604.72,450.35 602.69,455.75 601.47,458.50 C600.25,461.25 598.70,465.23 598.02,467.35 C597.34,469.46 596.16,472.39 595.40,473.85 C594.64,475.31 594.01,476.97 594.01,477.55 C594.00,478.13 592.42,483.41 590.50,489.29 C588.58,495.17 587.00,501.08 587.00,502.43 C587.00,503.78 586.61,505.12 586.13,505.42 C585.66,505.71 584.98,507.88 584.63,510.23 C584.29,512.58 583.59,516.97 583.08,520.00 C582.56,523.03 582.11,530.24 582.07,536.03 L 582.00 546.55 L 578.25 551.58 C576.19,554.34 573.90,557.93 573.16,559.55 C572.42,561.17 571.14,563.85 570.31,565.50 C567.10,571.91 565.06,579.61 562.64,594.50 L 561.50 601.50 L 550.50 601.19 C540.54,600.90 538.95,600.59 533.70,597.85 C527.27,594.50 524.10,593.38 516.00,591.59 C513.46,591.03 511.99,590.82 511.35,589.99 C510.50,588.89 511.06,586.71 512.46,581.22 C512.61,580.64 512.77,580.02 512.94,579.36 C516.32,566.07 519.75,558.11 526.91,547.00 C539.22,527.90 543.92,514.85 545.96,494.08 C546.58,487.80 547.28,482.35 547.52,481.97 C547.76,481.58 551.26,481.05 555.29,480.79 C563.02,480.30 567.40,478.51 579.00,471.12 C585.55,466.95 597.35,455.00 600.06,449.80 C605.00,440.33 605.50,437.40 605.50,418.00 L 605.50 399.50 L 601.93 392.00 C598.09,383.94 595.28,381.20 586.08,376.54 C581.13,374.03 579.87,373.82 571.60,374.15 L 562.54 374.50 L 561.44 365.00 C560.83,359.77 559.76,353.02 559.06,350.00 C556.89,340.65 548.93,327.15 538.75,315.55 C536.69,313.20 535.00,310.87 535.00,310.37 C535.00,309.87 536.29,307.89 537.86,305.98 C539.44,304.07 542.25,299.58 544.11,296.00 C547.36,289.76 547.50,289.06 547.50,278.50 C547.50,267.95 547.36,267.25 544.20,261.43 C538.55,251.00 528.44,242.35 512.00,233.85 C510.08,232.86 504.77,231.26 500.22,230.30 C492.07,228.59 491.74,228.60 479.72,230.85 C473.00,232.10 465.92,233.09 464.00,233.03 C462.08,232.98 455.55,232.84 449.50,232.72 C438.57,232.50 438.44,232.47 428.67,227.69 C408.60,217.87 376.76,213.68 351.00,217.47 C338.26,219.35 332.61,220.63 329.06,222.47 C327.43,223.31 325.42,224.00 324.60,224.00 C322.28,224.00 306.90,233.16 300.61,238.28 C297.52,240.80 293.53,244.66 291.74,246.87 C289.96,249.07 286.12,253.79 283.22,257.36 C280.32,260.93 275.68,268.22 272.91,273.57 C268.43,282.25 267.72,284.52 266.35,294.55 C264.96,304.68 264.96,306.84 266.35,316.27 C267.84,326.40 268.76,329.02 275.11,341.20 L 278.08 346.90 L 270.98 354.95 C263.09,363.90 261.70,364.42 254.89,360.94 C248.45,357.66 248.07,359.28 254.30,363.41 C260.65,367.63 261.04,368.83 258.09,375.30 C256.63,378.53 255.56,382.05 254.96,385.40 C254.99,385.03 255.00,384.64 255.00,384.25 C255.00,383.11 254.68,383.02 253.66,383.87 C252.92,384.48 252.02,384.69 251.66,384.32 C251.30,383.96 251.00,385.12 251.00,386.90 C251.00,388.68 250.56,390.96 250.02,391.96 C249.14,393.62 249.27,393.68 251.44,392.66 C252.94,391.95 254.04,390.25 254.60,387.92 C254.24,391.19 254.38,394.14 255.09,396.31 C257.04,402.30 260.80,408.73 264.51,412.44 C271.27,419.20 286.09,422.09 303.37,420.02 C309.69,419.26 313.58,419.18 314.20,419.80 C315.47,421.07 315.38,432.41 314.08,434.85 C313.51,435.91 310.90,438.56 308.28,440.75 C304.44,443.94 302.40,444.86 297.96,445.41 C296.56,445.58 295.67,445.82 294.78,445.85 C292.09,445.94 289.34,444.13 272.28,432.94 C269.91,431.38 267.25,429.63 264.28,427.69 C258.66,424.01 253.76,421.00 253.41,421.00 C252.50,421.00 240.23,412.19 239.51,411.02 C238.78,409.84 242.26,402.86 244.50,401.00 C247.30,398.67 251.00,390.27 251.00,386.23 C251.00,378.68 243.85,370.84 230.00,363.23 C223.29,359.54 211.89,356.61 207.46,357.44 C204.14,358.06 198.27,363.67 194.75,369.57 C193.79,371.18 191.66,374.52 190.02,377.00 C188.38,379.48 186.73,382.17 186.36,383.00 C186.00,383.83 183.78,387.42 181.45,391.00 C179.11,394.58 175.96,400.04 174.44,403.15 L 171.68 408.80 L 175.18 416.15 C177.11,420.19 179.88,424.92 181.34,426.65 C186.20,432.39 200.25,438.51 211.03,439.57 L 217.81 440.24 L 223.48 432.58 L 229.14 424.92 L 237.82 429.62 C245.74,433.91 248.62,435.87 256.00,442.04 C257.38,443.19 261.65,446.05 265.50,448.40 C269.35,450.74 272.63,453.33 272.79,454.16 C272.95,454.98 269.23,459.67 264.53,464.58 C256.17,473.31 251.46,480.58 248.57,489.20 C239.96,514.94 257.90,553.37 285.08,567.40 C297.68,573.91 305.95,576.12 318.50,576.32 C324.55,576.42 333.47,576.10 338.31,575.61 L 347.12 574.71 L 350.81 578.19 C354.08,581.27 360.67,586.12 366.50,589.74 C366.72,589.88 366.98,590.03 367.27,590.20 L 367.28 590.20 L 367.34 590.24 C368.99,591.18 371.61,592.52 374.39,593.86 L 374.39 593.86 C378.50,595.86 382.94,597.87 385.06,598.66 C386.16,599.12 387.16,599.51 388.00,599.81 C389.70,600.42 391.80,601.19 393.70,601.89 C398.18,603.83 403.36,605.16 408.69,605.77 C409.15,605.84 409.60,605.90 410.04,605.96 C421.78,607.51 421.99,607.62 418.46,610.54 C416.83,611.89 412.35,614.82 408.50,617.06 C402.41,620.60 398.46,623.15 394.67,626.20 C392.11,628.23 389.74,630.44 386.71,633.40 C380.31,639.68 372.46,644.20 354.26,652.08 C351.93,653.09 347.29,655.74 343.94,657.96 C340.60,660.18 337.53,662.00 337.13,662.00 C336.73,662.00 333.61,664.25 330.19,667.00 C326.78,669.75 323.73,672.00 323.42,672.00 C321.47,672.00 287.00,704.23 287.00,706.06 C287.00,706.43 285.67,708.47 284.03,710.61 C282.40,712.75 280.40,715.40 279.58,716.50 C278.76,717.60 275.91,721.42 273.25,725.00 C265.05,736.01 258.88,747.16 260.15,748.68 C262.04,750.96 264.53,750.16 272.99,744.57 C282.41,738.33 290.63,734.83 300.17,732.97 C306.17,731.80 307.48,731.86 313.35,733.58 C319.44,735.38 320.70,736.31 332.77,748.00 C339.87,754.88 347.13,761.62 348.90,763.00 C351.96,765.38 352.06,765.66 350.93,768.84 C348.40,775.94 351.23,788.37 356.76,794.50 C365.45,804.12 380.99,809.80 391.00,807.01 ZM 283.18 337.75 C280.21,332.89 275.91,322.22 274.40,316.00 C271.91,305.69 273.14,291.42 277.44,280.76 C285.10,261.79 302.31,243.00 320.50,233.72 C330.15,228.80 334.67,227.04 340.50,225.89 C367.29,220.64 373.93,220.65 399.00,225.95 C412.73,228.86 428.63,236.16 440.75,245.14 C445.84,248.92 450.23,252.00 450.50,252.00 C452.21,252.00 450.44,248.01 447.31,244.81 C445.29,242.73 443.95,240.71 444.35,240.32 C445.50,239.17 459.02,241.87 463.62,244.17 C465.94,245.33 470.22,248.69 473.14,251.64 C482.40,261.02 484.30,257.48 475.42,247.36 C471.77,243.21 470.30,240.86 471.17,240.59 C471.90,240.36 474.03,239.69 475.90,239.09 C485.69,235.95 505.66,239.41 516.89,246.19 C526.69,252.10 533.90,260.95 537.16,271.05 C539.17,277.29 539.29,278.70 538.30,284.46 C536.68,293.91 530.51,305.79 527.76,304.74 C527.03,304.46 524.94,301.14 523.11,297.36 C517.46,285.67 513.04,282.47 498.28,279.42 C488.56,277.41 436.67,276.90 430.47,278.75 C428.25,279.42 422.85,280.44 418.47,281.03 C405.57,282.75 386.90,288.54 374.66,294.62 C368.52,297.67 362.69,300.89 361.71,301.77 C360.57,302.80 358.47,303.30 355.92,303.15 C352.44,302.94 351.42,303.43 347.93,306.96 C345.55,309.35 342.98,311.00 341.62,311.00 C333.96,311.00 304.76,326.31 291.91,337.08 C289.33,339.23 286.76,341.00 286.19,341.00 C285.63,341.00 284.27,339.54 283.18,337.75 ZM 377.00 877.35 C378.38,877.56 379.73,877.78 380.00,877.85 C380.27,877.91 381.08,877.60 381.80,877.15 C384.00,875.75 381.11,874.34 374.50,873.60 C356.92,871.63 333.36,861.50 316.00,848.43 C314.08,846.98 312.02,845.51 311.43,845.15 C308.22,843.21 295.41,824.45 291.96,816.64 C289.92,812.03 289.67,811.83 286.66,812.43 C271.05,815.52 264.24,816.06 254.50,814.95 C249.00,814.33 242.45,813.24 239.95,812.52 C232.82,810.49 221.32,804.43 217.23,800.55 C215.18,798.60 212.91,797.22 212.20,797.49 C211.48,797.76 211.17,797.53 211.51,796.99 C211.84,796.44 210.35,793.86 208.19,791.25 C202.83,784.77 199.69,779.02 196.07,769.06 C193.24,761.29 193.00,759.60 193.00,747.81 C193.00,736.30 193.29,734.16 195.86,726.73 C201.37,710.84 206.07,703.15 229.31,671.99 C238.28,659.96 251.29,645.89 260.75,638.00 C263.64,635.60 265.99,633.15 265.97,632.56 C265.96,631.98 260.67,629.04 254.22,626.04 C240.35,619.58 232.11,613.35 219.12,599.50 C200.93,580.12 190.31,561.57 184.53,539.08 C183.74,536.01 182.18,530.12 181.06,526.00 C179.69,520.94 179.03,515.37 179.02,508.87 L 179.00 499.23 L 173.97 497.59 C165.78,494.91 148.80,486.38 144.56,482.81 C130.41,470.93 123.77,462.66 115.43,446.50 C112.87,441.55 109.48,433.58 107.89,428.78 C103.89,416.71 103.78,402.61 107.60,390.05 C110.20,381.50 118.00,365.03 123.01,357.50 C124.48,355.30 127.52,350.58 129.78,347.00 C132.03,343.42 135.27,338.48 136.98,336.00 C138.69,333.52 141.91,328.67 144.15,325.21 C151.40,313.98 159.35,307.14 173.50,299.99 C179.31,297.05 186.01,294.48 189.50,293.86 C192.80,293.27 196.51,292.60 197.75,292.37 C199.76,292.01 200.00,291.38 200.00,286.47 C200.00,280.67 202.82,266.55 205.49,259.00 C207.56,253.15 217.43,233.88 220.84,229.02 C225.67,222.14 235.43,209.53 237.50,207.50 C238.62,206.40 241.07,203.48 242.94,201.00 C246.87,195.80 264.51,181.21 273.41,175.80 C281.44,170.91 297.85,161.82 298.21,162.05 C298.37,162.15 300.24,161.51 302.37,160.62 C304.50,159.73 307.01,159.00 307.95,159.00 C308.89,159.00 313.67,157.69 318.58,156.08 C327.09,153.30 331.74,152.60 359.40,149.95 C382.47,147.74 419.90,153.06 443.39,161.90 C455.92,166.62 456.93,166.68 477.78,164.01 C491.69,162.23 493.92,162.18 502.78,163.45 C525.47,166.71 538.13,171.18 555.14,181.93 L 561.48 185.94 L 565.49 182.15 C574.35,173.76 585.87,165.29 592.50,162.28 C600.66,158.58 624.68,150.01 625.26,150.59 C625.48,150.81 631.02,150.28 637.58,149.42 C647.37,148.13 651.47,148.05 660.50,148.95 C666.55,149.56 674.42,150.29 678.00,150.58 C688.74,151.44 696.84,154.01 712.12,161.38 C727.51,168.82 734.51,173.63 746.05,184.74 C760.18,198.34 774.73,220.19 780.15,235.94 C781.18,238.94 782.60,242.32 783.31,243.45 C784.01,244.58 785.61,249.10 786.85,253.50 C788.10,257.90 790.33,265.10 791.81,269.50 L 794.50 277.50 L 794.50 311.00 C794.50,343.93 794.46,344.61 792.10,350.82 C789.17,358.54 789.19,358.56 801.26,362.85 C806.08,364.57 811.81,366.89 814.01,368.00 C816.20,369.12 818.00,369.81 818.00,369.54 C818.00,368.66 839.19,380.17 843.94,383.62 C867.02,400.43 869.34,402.39 877.28,411.84 C890.47,427.49 902.84,449.40 910.15,470.00 C912.33,476.13 912.47,478.09 912.67,504.68 L 912.89 532.86 L 915.91 540.18 C918.85,547.31 918.93,547.94 918.99,564.50 C919.06,581.31 919.02,581.62 915.58,592.00 C913.67,597.78 911.12,605.88 909.92,610.00 C908.71,614.12 906.58,619.53 905.17,622.00 C902.98,625.85 902.51,628.25 901.90,638.50 C901.51,645.10 900.74,652.30 900.18,654.50 C899.62,656.70 898.22,662.55 897.07,667.50 C893.74,681.76 883.46,700.43 872.89,711.43 C870.29,714.14 868.74,716.94 867.92,720.43 C866.03,728.44 858.69,743.87 852.85,752.11 C843.74,764.97 839.85,770.00 838.99,770.00 C838.54,770.00 835.99,772.06 833.33,774.58 C830.68,777.09 826.93,780.36 825.00,781.83 C823.08,783.30 820.60,785.33 819.50,786.33 C818.40,787.34 816.18,788.86 814.57,789.70 C812.96,790.54 809.39,792.82 806.64,794.75 C803.88,796.69 798.23,799.83 794.07,801.73 C789.90,803.64 783.80,806.44 780.50,807.96 C773.13,811.36 769.61,812.50 760.00,814.59 C755.88,815.49 750.70,816.63 748.50,817.12 C737.67,819.57 730.85,820.19 711.50,820.49 C691.31,820.80 682.47,820.14 664.65,816.98 C655.85,815.42 640.28,811.23 636.35,809.36 L 632.87 807.71 L 624.19 812.26 C613.67,817.78 610.50,818.73 597.04,820.47 C571.27,823.79 549.99,816.43 533.77,798.60 L 530.03 794.50 L 525.77 796.83 C516.28,802.01 478.06,820.88 471.79,823.48 C465.87,825.94 464.64,826.94 461.27,832.06 C455.27,841.20 442.76,853.55 433.54,859.44 C422.31,866.61 401.28,874.00 392.07,874.00 C388.60,874.00 385.90,876.64 388.39,877.60 C391.90,878.94 419.62,871.81 418.42,869.87 C418.13,869.41 418.50,869.26 419.24,869.54 C421.04,870.23 433.05,863.80 440.50,858.15 C443.80,855.65 452.35,847.69 459.50,840.46 L 472.50 827.31 L 518.50 804.50 L 526.03 804.50 C533.06,804.50 533.90,804.74 538.53,808.05 C545.62,813.12 546.47,813.59 545.51,811.90 C545.07,811.13 545.69,811.51 546.89,812.75 C550.04,815.99 555.64,818.61 565.54,821.48 C572.66,823.55 576.37,824.00 586.17,824.00 C599.38,824.00 601.56,823.61 620.87,817.76 L 634.24 813.71 L 643.87 815.95 C670.98,822.25 683.96,823.96 705.00,823.98 C741.10,824.02 764.18,819.36 791.55,806.50 C814.63,795.65 838.11,777.52 851.10,760.50 C857.57,752.01 865.00,739.01 869.37,728.50 C873.57,718.41 876.73,712.67 880.62,708.04 C887.08,700.37 897.48,680.24 900.80,669.00 C902.01,664.87 903.35,656.95 905.60,640.50 C906.50,633.90 908.35,625.58 909.72,622.00 C915.10,607.91 921.03,586.24 922.05,577.00 C923.34,565.21 922.46,551.00 919.78,540.50 C918.13,534.05 917.59,527.55 916.96,507.00 C916.53,492.98 915.88,479.92 915.50,478.00 C911.52,457.59 894.31,424.95 878.85,408.49 C863.24,391.87 846.57,380.03 821.00,367.40 C804.34,359.17 799.09,355.58 798.89,352.30 C798.82,351.31 798.71,334.75 798.64,315.50 L 798.50 280.50 L 795.31 268.50 C787.12,237.66 774.57,211.85 759.12,194.02 C740.90,173.00 723.17,160.80 698.31,152.14 C684.71,147.41 672.06,145.58 652.50,145.54 C628.38,145.48 612.77,149.01 592.50,159.10 C583.48,163.59 581.94,164.60 582.76,165.50 C583.17,165.95 582.95,166.00 582.27,165.61 C581.56,165.21 578.81,166.57 575.77,168.84 C563.68,177.87 558.34,178.74 547.78,173.39 C539.82,169.35 520.51,163.01 511.00,161.31 C500.39,159.41 487.17,159.28 471.00,160.93 C470.67,160.96 470.35,160.99 470.04,161.02 C465.52,161.49 462.61,161.78 459.72,161.67 C454.28,161.46 448.90,159.81 433.00,155.10 C381.84,139.93 321.81,144.52 282.32,166.62 C270.19,173.41 268.26,174.71 256.00,184.35 C247.10,191.35 241.42,197.19 231.04,210.00 C212.07,233.40 204.21,248.85 196.12,278.61 C194.31,285.26 191.72,287.50 178.45,293.91 C163.25,301.24 158.54,304.41 149.88,313.12 C140.89,322.16 120.77,352.48 111.44,371.05 C103.29,387.25 102.50,390.53 102.52,408.00 C102.54,426.18 103.38,429.74 111.64,446.71 C118.93,461.69 133.03,478.88 143.50,485.54 C145.15,486.59 146.73,487.74 147.00,488.08 C147.27,488.43 151.87,491.10 157.20,494.01 C162.54,496.92 168.26,500.70 169.91,502.41 C173.02,505.61 173.26,506.38 178.09,528.50 C180.80,540.88 186.94,558.95 191.56,568.12 C200.52,585.91 220.42,608.12 239.54,621.68 C251.41,630.09 252.40,631.15 252.40,635.50 L 252.40 635.67 C252.40,636.19 252.40,636.63 252.35,637.06 C252.05,639.55 250.05,641.83 236.56,657.44 C224.66,671.21 224.04,672.04 209.87,693.16 C198.23,710.51 195.74,715.32 192.41,726.93 C190.09,735.02 189.88,737.17 190.28,748.70 C190.77,762.96 191.24,766.05 194.12,774.00 C197.64,783.70 206.44,795.78 214.52,802.02 C217.49,804.30 220.39,805.88 220.98,805.51 C221.57,805.15 221.93,805.37 221.77,806.01 C221.33,807.88 231.26,812.97 240.74,815.75 C248.43,818.00 251.53,818.34 266.11,818.49 C286.29,818.69 286.75,818.89 296.00,831.25 C304.34,842.38 309.52,847.61 318.97,854.42 C334.98,865.95 355.78,874.16 377.00,877.35 ZM 275.23 411.13 C268.59,408.78 266.64,407.01 263.38,400.35 C259.49,392.39 260.08,382.20 264.90,374.37 L 266.83 371.23 L 277.75 371.75 C287.35,372.21 289.38,372.00 294.58,370.06 C294.91,369.93 295.22,369.82 295.52,369.70 C301.19,367.58 303.08,366.88 303.70,367.48 C304.00,367.77 304.01,368.36 304.01,369.24 L 304.01 369.32 L 304.01 369.33 C304.01,369.43 304.01,369.53 304.01,369.63 C304.02,371.21 304.25,374.08 304.53,376.00 C305.00,379.26 304.67,379.79 299.67,383.74 C293.74,388.42 288.92,390.76 281.70,392.44 C275.45,393.90 275.69,395.58 282.10,395.22 C288.15,394.87 296.00,391.91 301.42,387.92 C304.59,385.59 305.65,385.25 306.58,386.24 C307.96,387.74 314.00,405.28 314.00,407.80 C314.00,410.78 308.32,412.14 294.00,412.58 C282.65,412.93 279.66,412.70 275.23,411.13 ZM 272.32 365.96 C270.30,363.87 275.40,357.72 288.09,346.97 C299.48,337.31 306.09,332.89 322.00,324.29 C331.28,319.28 341.40,315.56 343.53,316.37 C346.26,317.42 344.97,322.26 341.50,324.00 C328.74,330.40 313.20,344.65 308.58,354.19 C305.93,359.67 305.53,360.01 298.16,363.12 C292.12,365.66 288.70,366.43 282.00,366.76 C276.14,367.05 273.13,366.80 272.32,365.96 ZM 424.20 465.80 C422.64,464.24 422.67,460.79 424.25,458.84 C424.94,458.00 428.77,455.45 432.77,453.19 C436.77,450.93 443.76,446.17 448.31,442.62 C457.50,435.44 475.59,417.17 481.73,408.87 C490.96,396.39 502.15,389.67 504.96,394.93 C507.06,398.85 506.17,400.91 501.03,404.08 C497.67,406.14 491.99,411.99 483.52,422.10 C465.25,443.88 451.28,456.31 436.90,463.55 C429.70,467.17 426.20,467.80 424.20,465.80 ZM 818.77 462.54 C824.93,469.04 829.87,475.53 830.00,477.87 C829.87,475.59 824.87,469.04 818.77,462.54 Z" fill="rgb(241,241,241)"/>
<path d="M 377.00 877.35 C355.78,874.16 334.98,865.95 318.97,854.42 C309.52,847.61 304.34,842.38 296.00,831.25 C286.75,818.89 286.29,818.69 266.11,818.49 C251.53,818.34 248.43,818.00 240.74,815.75 C231.26,812.97 221.33,807.88 221.77,806.01 C221.93,805.37 221.57,805.15 220.98,805.51 C220.39,805.88 217.49,804.30 214.52,802.02 C206.44,795.78 197.64,783.70 194.12,774.00 C191.24,766.05 190.77,762.96 190.28,748.70 C189.88,737.17 190.09,735.02 192.41,726.93 C195.74,715.32 198.23,710.51 209.87,693.16 C224.04,672.04 224.66,671.21 236.56,657.44 C252.65,638.82 252.40,639.16 252.40,635.50 C252.40,631.15 251.41,630.09 239.54,621.68 C220.42,608.12 200.52,585.91 191.56,568.12 C186.94,558.95 180.80,540.88 178.09,528.50 C173.26,506.38 173.02,505.61 169.91,502.41 C168.26,500.70 162.54,496.92 157.20,494.01 C151.87,491.10 147.27,488.43 147.00,488.08 C146.73,487.74 145.15,486.59 143.50,485.54 C133.03,478.88 118.93,461.69 111.64,446.71 C103.38,429.74 102.54,426.18 102.52,408.00 C102.50,390.53 103.29,387.25 111.44,371.05 C120.77,352.48 140.89,322.16 149.88,313.12 C158.54,304.41 163.25,301.24 178.45,293.91 C191.72,287.50 194.31,285.26 196.12,278.61 C204.21,248.85 212.07,233.40 231.04,210.00 C241.42,197.19 247.10,191.35 256.00,184.35 C268.26,174.71 270.19,173.41 282.32,166.62 C321.81,144.52 381.84,139.93 433.00,155.10 C457.94,162.49 457.00,162.35 471.00,160.93 C487.17,159.28 500.39,159.41 511.00,161.31 C520.51,163.01 539.82,169.35 547.78,173.39 C558.34,178.74 563.68,177.87 575.77,168.84 C578.81,166.57 581.56,165.21 582.27,165.61 C582.95,166.00 583.17,165.95 582.76,165.50 C581.94,164.60 583.48,163.59 592.50,159.10 C612.77,149.01 628.38,145.48 652.50,145.54 C672.06,145.58 684.71,147.41 698.31,152.14 C723.17,160.80 740.90,173.00 759.12,194.02 C774.57,211.85 787.12,237.66 795.31,268.50 L 798.50 280.50 L 798.64 315.50 C798.71,334.75 798.82,351.31 798.89,352.30 C799.09,355.58 804.34,359.17 821.00,367.40 C846.57,380.03 863.24,391.87 878.85,408.49 C894.31,424.95 911.52,457.59 915.50,478.00 C915.88,479.92 916.53,492.98 916.96,507.00 C917.59,527.55 918.13,534.05 919.78,540.50 C922.46,551.00 923.34,565.21 922.05,577.00 C921.03,586.24 915.10,607.91 909.72,622.00 C908.35,625.58 906.50,633.90 905.60,640.50 C903.35,656.95 902.01,664.87 900.80,669.00 C897.48,680.24 887.08,700.37 880.62,708.04 C876.73,712.67 873.57,718.41 869.37,728.50 C865.00,739.01 857.57,752.01 851.10,760.50 C838.11,777.52 814.63,795.65 791.55,806.50 C764.18,819.36 741.10,824.02 705.00,823.98 C683.96,823.96 670.98,822.25 643.87,815.95 L 634.24 813.71 L 620.87 817.76 C601.56,823.61 599.38,824.00 586.17,824.00 C576.37,824.00 572.66,823.55 565.54,821.48 C555.64,818.61 550.04,815.99 546.89,812.75 C545.69,811.51 545.07,811.13 545.51,811.90 C546.47,813.59 545.62,813.12 538.53,808.05 C533.90,804.74 533.06,804.50 526.03,804.50 L 518.50 804.50 L 495.50 815.91 L 472.50 827.31 L 459.50 840.46 C452.35,847.69 443.80,855.65 440.50,858.15 C433.05,863.80 421.04,870.23 419.24,869.54 C418.50,869.26 418.13,869.41 418.42,869.87 C419.62,871.81 391.90,878.94 388.39,877.60 C385.90,876.64 388.60,874.00 392.07,874.00 C401.28,874.00 422.31,866.61 433.54,859.44 C442.76,853.55 455.27,841.20 461.27,832.06 C464.64,826.94 465.87,825.94 471.79,823.48 C478.06,820.88 516.28,802.01 525.77,796.83 L 530.03 794.50 L 533.77 798.60 C549.99,816.43 571.27,823.79 597.04,820.47 C610.50,818.73 613.67,817.78 624.19,812.26 L 632.87 807.71 L 636.35 809.36 C640.28,811.23 655.85,815.42 664.65,816.98 C682.47,820.14 691.31,820.80 711.50,820.49 C730.85,820.19 737.67,819.57 748.50,817.12 C750.70,816.63 755.88,815.49 760.00,814.59 C769.61,812.50 773.13,811.36 780.50,807.96 C783.80,806.44 789.90,803.64 794.07,801.73 C798.23,799.83 803.88,796.69 806.64,794.75 C809.39,792.82 812.96,790.54 814.57,789.70 C816.18,788.86 818.40,787.34 819.50,786.33 C820.60,785.33 823.08,783.30 825.00,781.83 C826.93,780.36 830.68,777.09 833.33,774.58 C835.99,772.06 838.54,770.00 838.99,770.00 C839.85,770.00 843.74,764.97 852.85,752.11 C858.69,743.87 866.03,728.44 867.92,720.43 C868.74,716.94 870.29,714.14 872.89,711.43 C883.46,700.43 893.74,681.76 897.07,667.50 C898.22,662.55 899.62,656.70 900.18,654.50 C900.74,652.30 901.51,645.10 901.90,638.50 C902.51,628.25 902.98,625.85 905.17,622.00 C906.58,619.53 908.71,614.12 909.92,610.00 C911.12,605.88 913.67,597.78 915.58,592.00 C919.02,581.62 919.06,581.31 918.99,564.50 C918.93,547.94 918.85,547.31 915.91,540.18 L 912.89 532.86 L 912.67 504.68 C912.47,478.09 912.33,476.13 910.15,470.00 C902.84,449.40 890.47,427.49 877.28,411.84 C869.34,402.39 867.02,400.43 843.94,383.62 C839.19,380.17 818.00,368.66 818.00,369.54 C818.00,369.81 816.20,369.12 814.01,368.00 C811.81,366.89 806.08,364.57 801.26,362.85 C789.19,358.56 789.17,358.54 792.10,350.82 C794.46,344.61 794.50,343.93 794.50,311.00 L 794.50 277.50 L 791.81 269.50 C790.33,265.10 788.10,257.90 786.85,253.50 C785.61,249.10 784.01,244.58 783.31,243.45 C782.60,242.32 781.18,238.94 780.15,235.94 C774.73,220.19 760.18,198.34 746.05,184.74 C734.51,173.63 727.51,168.82 712.12,161.38 C696.84,154.01 688.74,151.44 678.00,150.58 C674.42,150.29 666.55,149.56 660.50,148.95 C651.47,148.05 647.37,148.13 637.58,149.42 C631.02,150.28 625.48,150.81 625.26,150.59 C624.68,150.01 600.66,158.58 592.50,162.28 C585.87,165.29 574.35,173.76 565.49,182.15 L 561.48 185.94 L 555.14 181.93 C538.13,171.18 525.47,166.71 502.78,163.45 C493.92,162.18 491.69,162.23 477.78,164.01 C456.93,166.68 455.92,166.62 443.39,161.90 C419.90,153.06 382.47,147.74 359.40,149.95 C331.74,152.60 327.09,153.30 318.58,156.08 C313.67,157.69 308.89,159.00 307.95,159.00 C307.01,159.00 304.50,159.73 302.37,160.62 C300.24,161.51 298.37,162.15 298.21,162.05 C297.85,161.82 281.44,170.91 273.41,175.80 C264.51,181.21 246.87,195.80 242.94,201.00 C241.07,203.48 238.62,206.40 237.50,207.50 C235.43,209.53 225.67,222.14 220.84,229.02 C217.43,233.88 207.56,253.15 205.49,259.00 C202.82,266.55 200.00,280.67 200.00,286.47 C200.00,291.38 199.76,292.01 197.75,292.37 C196.51,292.60 192.80,293.27 189.50,293.86 C186.01,294.48 179.31,297.05 173.50,299.99 C159.35,307.14 151.40,313.98 144.15,325.21 C141.91,328.67 138.69,333.52 136.98,336.00 C135.27,338.48 132.03,343.42 129.78,347.00 C127.52,350.58 124.48,355.30 123.01,357.50 C118.00,365.03 110.20,381.50 107.60,390.05 C103.78,402.61 103.89,416.71 107.89,428.78 C109.48,433.58 112.87,441.55 115.43,446.50 C123.77,462.66 130.41,470.93 144.56,482.81 C148.80,486.38 165.78,494.91 173.97,497.59 L 179.00 499.23 L 179.02 508.87 C179.03,515.37 179.69,520.94 181.06,526.00 C182.18,530.12 183.74,536.01 184.53,539.08 C190.31,561.57 200.93,580.12 219.12,599.50 C232.11,613.35 240.35,619.58 254.22,626.04 C260.67,629.04 265.96,631.98 265.97,632.56 C265.99,633.15 263.64,635.60 260.75,638.00 C251.29,645.89 238.28,659.96 229.31,671.99 C206.07,703.15 201.37,710.84 195.86,726.73 C193.29,734.16 193.00,736.30 193.00,747.81 C193.00,759.60 193.24,761.29 196.07,769.06 C199.69,779.02 202.83,784.77 208.19,791.25 C210.35,793.86 211.84,796.44 211.51,796.99 C211.17,797.53 211.48,797.76 212.20,797.49 C212.91,797.22 215.18,798.60 217.23,800.55 C221.32,804.43 232.82,810.49 239.95,812.52 C242.45,813.24 249.00,814.33 254.50,814.95 C264.24,816.06 271.05,815.52 286.66,812.43 C289.67,811.83 289.92,812.03 291.96,816.64 C295.41,824.45 308.22,843.21 311.43,845.15 C312.02,845.51 314.08,846.98 316.00,848.43 C333.36,861.50 356.92,871.63 374.50,873.60 C381.11,874.34 384.00,875.75 381.80,877.15 C381.08,877.60 380.27,877.91 380.00,877.85 C379.73,877.78 378.38,877.56 377.00,877.35 ZM 370.50 796.73 C364.97,794.47 361.89,791.72 359.44,786.88 C355.35,778.81 356.84,770.81 363.93,762.73 C367.29,758.91 375.88,754.98 380.79,755.02 C385.11,755.06 397.20,762.91 399.25,767.00 C405.64,779.78 394.43,796.90 379.17,797.67 C376.05,797.83 372.15,797.40 370.50,796.73 ZM 385.00 752.12 C379.56,750.09 379.28,749.18 379.12,733.00 C378.83,704.10 389.47,675.26 407.47,656.17 C414.56,648.66 430.75,638.42 432.61,640.27 C432.96,640.63 431.59,647.13 429.55,654.71 C424.96,671.77 424.52,674.00 425.76,674.00 C427.27,674.00 428.65,671.97 430.51,667.00 C431.44,664.53 433.24,659.80 434.51,656.50 C437.86,647.79 440.46,638.89 443.07,627.25 L 445.37 617.00 L 451.94 616.96 C459.48,616.91 463.74,615.59 471.67,610.86 C481.21,605.18 492.63,593.50 503.31,578.50 C506.70,573.74 506.77,576.95 503.50,587.73 C497.83,606.44 495.00,616.83 495.00,618.90 C495.00,620.00 494.59,621.94 494.10,623.20 C493.60,624.47 492.64,628.20 491.96,631.50 C491.28,634.80 489.44,642.61 487.86,648.86 C484.81,660.98 484.20,667.43 486.18,666.77 C488.08,666.14 489.57,662.55 493.97,648.00 C498.18,634.05 499.97,630.00 501.90,630.00 C505.28,630.01 509.79,633.94 512.36,639.10 C515.49,645.38 515.66,648.78 513.10,653.79 C510.70,658.47 499.40,671.34 493.77,675.79 C486.54,681.52 468.22,693.24 452.97,701.89 C427.47,716.36 403.34,735.61 394.36,748.64 C392.33,751.59 390.40,753.95 390.08,753.90 C389.76,753.84 387.48,753.04 385.00,752.12 ZM 693.00 743.47 C692.17,743.31 687.45,742.66 682.50,742.02 C658.85,739.00 644.86,733.07 628.27,719.05 C610.39,703.93 601.39,686.39 604.88,673.45 C606.13,668.80 611.75,661.00 613.85,661.00 C614.63,661.00 617.94,663.92 621.20,667.48 C637.95,685.76 668.46,699.92 698.00,703.12 C709.56,704.38 745.32,703.69 753.17,702.06 C758.55,700.94 778.43,693.64 788.44,689.10 C792.20,687.40 795.66,686.00 796.14,686.00 C797.67,686.00 797.05,692.79 794.94,699.23 C793.81,702.68 791.34,707.62 789.46,710.21 C785.39,715.81 768.89,730.14 765.14,731.34 C763.69,731.80 761.15,732.77 759.50,733.49 C748.22,738.44 745.01,739.35 727.50,742.51 C720.63,743.76 697.67,744.40 693.00,743.47 ZM 702.00 697.35 C674.24,693.14 657.86,687.28 641.54,675.72 C623.15,662.69 608.94,641.65 609.02,627.57 C609.08,618.03 614.34,607.30 620.60,603.95 C622.77,602.78 623.36,603.14 629.22,609.13 C649.91,630.33 676.09,640.73 717.00,643.99 C727.97,644.87 732.84,644.79 743.00,643.56 C770.61,640.23 779.56,637.82 804.50,627.00 C811.10,624.14 817.42,621.58 818.55,621.32 C821.21,620.70 823.03,624.49 823.73,632.13 C824.16,636.77 823.80,638.75 821.69,643.36 C816.30,655.13 804.11,668.77 791.00,677.68 C782.24,683.63 765.33,691.36 755.00,694.11 C744.76,696.85 711.92,698.85 702.00,697.35 ZM 595.33 656.39 C586.67,647.21 579.16,633.10 574.62,617.50 C572.49,610.17 572.00,606.42 572.00,597.33 C572.00,587.64 572.38,585.03 574.89,577.65 C576.48,572.98 578.80,567.11 580.05,564.61 C582.77,559.17 587.86,552.79 589.14,553.21 C589.65,553.38 591.59,557.03 593.45,561.31 C597.94,571.65 599.86,574.54 601.30,573.10 C602.12,572.28 601.72,570.59 599.83,566.72 C589.41,545.47 590.47,517.83 603.07,483.00 C608.38,468.30 611.71,459.31 614.55,452.00 C616.36,447.33 618.81,440.12 619.99,436.00 C621.17,431.88 622.72,426.48 623.43,424.00 C624.14,421.52 625.25,416.80 625.91,413.50 C626.56,410.20 627.51,405.48 628.01,403.00 C631.23,387.21 631.61,361.98 628.83,348.58 C628.25,345.79 627.40,340.12 626.93,336.00 C625.84,326.32 624.51,318.51 623.09,313.50 C621.24,306.91 618.31,297.05 615.38,287.50 C613.02,279.79 612.61,276.70 612.56,266.00 C612.50,253.90 612.60,253.29 615.74,246.76 C621.55,234.70 627.60,229.69 640.97,225.87 C660.36,220.32 680.54,226.76 695.55,243.30 C705.25,253.99 713.81,270.46 715.91,282.50 C716.58,286.35 717.55,291.75 718.07,294.50 C718.58,297.25 719.28,305.35 719.63,312.50 C720.23,325.06 719.19,335.84 716.05,349.50 C712.00,367.06 708.75,379.79 707.92,381.29 C704.42,387.63 705.12,406.66 709.20,416.20 C712.19,423.20 713.96,423.96 728.75,424.57 C735.76,424.87 744.42,425.57 748.00,426.13 C756.95,427.55 773.28,432.61 780.20,436.10 C783.36,437.69 786.52,439.00 787.22,439.00 C788.96,439.00 799.26,445.47 806.54,451.13 C816.40,458.80 830.00,474.35 830.00,477.96 C830.00,478.86 830.41,480.03 830.91,480.55 C833.06,482.80 838.00,499.41 837.98,504.33 C837.93,518.55 833.62,531.93 824.85,545.11 C818.93,554.00 805.83,565.53 796.50,570.05 C777.45,579.28 760.18,582.49 733.54,581.74 C721.79,581.41 714.79,580.75 711.00,579.61 C707.97,578.71 703.70,577.43 701.50,576.79 C694.90,574.85 677.97,566.65 670.50,561.76 C653.15,550.42 644.09,539.61 639.93,525.30 C636.01,511.80 645.88,492.91 662.97,481.18 C666.32,478.88 669.28,477.00 669.55,477.00 C669.82,477.00 671.72,475.90 673.77,474.55 C680.02,470.46 692.49,466.96 703.00,466.35 C712.35,465.81 716.95,466.53 738.47,471.84 C741.33,472.54 742.33,474.43 743.29,480.92 C743.44,481.95 741.10,482.82 734.82,484.08 C726.08,485.82 715.70,490.47 712.40,494.12 C709.44,497.38 711.72,497.42 718.74,494.24 C730.18,489.04 736.70,487.68 747.21,488.32 C759.20,489.06 766.11,490.39 771.56,493.03 C775.78,495.07 778.72,494.97 777.40,492.84 C775.97,490.52 762.71,485.16 756.73,484.49 C748.79,483.59 747.00,482.04 747.01,476.10 C747.03,467.96 753.46,456.93 760.25,453.39 C762.88,452.01 763.99,450.00 762.11,450.00 C760.02,450.00 749.25,458.29 746.56,461.98 C743.46,466.21 741.08,467.00 738.98,464.48 C736.96,462.04 738.41,452.50 741.51,447.80 C744.26,443.65 744.22,441.74 741.44,444.05 C738.23,446.72 734.18,453.67 733.31,458.03 C732.26,463.24 732.54,463.19 718.50,460.51 C702.61,457.47 682.39,459.69 666.40,466.24 C652.04,472.12 639.09,481.90 635.08,489.91 C629.77,500.47 627.84,514.93 630.40,524.91 C631.28,528.35 632.00,531.91 632.00,532.83 C632.00,533.75 629.09,537.10 625.54,540.27 C620.63,544.67 618.18,547.88 615.29,553.72 C611.93,560.52 611.46,562.39 611.15,570.24 C610.80,578.94 611.35,581.75 614.74,588.58 C616.26,591.64 616.23,591.70 611.05,598.08 C601.94,609.30 600.56,612.84 600.53,625.00 C600.50,635.13 600.64,635.79 604.34,643.65 L 608.19 651.80 L 604.21 655.90 C602.02,658.16 599.90,660.00 599.49,660.00 C599.07,660.00 597.20,658.37 595.33,656.39 ZM 710.14 635.49 C697.79,634.08 685.52,631.08 672.71,626.32 C664.54,623.28 648.99,614.96 643.76,610.81 C639.65,607.55 629.74,595.74 626.13,589.78 C620.54,580.56 618.04,561.10 621.68,555.21 C627.71,545.48 636.41,541.12 639.22,546.42 C640.55,548.92 650.77,558.52 657.15,563.24 C666.88,570.46 692.46,580.95 709.00,584.52 C737.00,590.56 760.14,589.75 784.66,581.90 C801.97,576.35 811.54,570.33 824.74,556.68 C833.37,547.75 834.08,547.23 835.64,548.79 C838.17,551.32 841.03,558.43 841.66,563.78 C842.77,573.11 836.67,589.03 827.86,599.84 C823.78,604.84 813.65,613.63 808.00,617.08 C802.58,620.38 781.69,628.12 773.00,630.04 C769.97,630.71 765.25,631.85 762.50,632.56 C748.84,636.14 726.70,637.37 710.14,635.49 ZM 412.00 598.01 C400.10,596.51 380.48,588.93 367.00,580.63 C353.31,572.21 340.38,558.74 336.40,548.75 C334.66,544.40 331.98,542.26 332.01,545.25 C332.03,546.98 334.37,553.51 337.46,560.51 C340.95,568.40 340.18,569.11 327.57,569.77 C303.72,571.02 287.36,564.33 272.40,547.22 C263.90,537.50 260.86,532.40 257.39,522.09 C252.21,506.65 253.20,493.66 260.54,480.50 C265.47,471.68 275.70,463.00 281.17,463.00 C283.04,463.00 288.22,465.70 299.75,472.68 C301.28,473.61 302.00,475.01 302.00,477.06 C302.00,481.19 306.20,489.13 310.74,493.54 C315.03,497.73 324.30,502.63 334.50,506.10 C340.62,508.18 343.25,508.47 355.50,508.41 C367.73,508.34 370.58,508.00 378.00,505.67 C391.24,501.53 400.65,496.11 407.55,488.65 C414.52,481.09 417.45,477.29 419.12,473.65 C420.66,470.26 422.96,470.29 426.19,473.75 C429.34,477.13 434.29,486.11 435.97,491.50 C439.62,503.18 448.77,514.73 458.41,519.81 C462.85,522.15 464.59,522.48 472.01,522.39 C478.97,522.30 481.53,521.81 486.05,519.67 C493.24,516.27 499.12,511.16 503.57,504.46 C508.12,497.60 510.28,491.64 513.66,476.59 C516.03,466.04 516.38,462.27 516.43,447.00 C516.48,429.93 515.09,414.25 512.51,402.87 C511.81,399.77 511.45,396.09 511.72,394.70 C512.47,390.75 507.62,388.62 498.48,388.88 C489.45,389.14 477.81,399.24 460.73,421.65 C454.13,430.30 439.38,443.77 431.03,448.77 C427.15,451.10 423.76,453.00 423.51,453.00 C423.25,453.00 422.08,451.09 420.91,448.75 C418.04,443.01 413.51,438.44 408.04,435.74 C404.41,433.95 401.78,433.50 394.98,433.50 C387.00,433.50 386.11,433.72 381.20,436.87 C375.69,440.41 369.00,447.43 369.00,449.68 C369.00,451.80 370.47,451.21 372.69,448.21 C378.35,440.55 395.74,436.58 405.24,440.78 C408.36,442.16 410.77,444.20 412.68,447.10 C415.17,450.88 415.49,452.23 415.38,458.68 C415.23,467.11 414.13,470.36 408.77,478.12 C398.76,492.63 377.57,502.04 355.09,501.96 C343.38,501.92 336.48,500.58 327.58,496.60 C314.58,490.79 308.65,482.80 307.40,469.41 C305.73,451.43 313.71,442.81 335.50,439.07 C344.82,437.47 355.07,434.35 356.83,432.60 C358.29,431.13 358.29,431.00 356.78,431.00 C355.87,431.00 354.09,431.39 352.82,431.87 C351.54,432.35 344.60,433.06 337.40,433.45 L 324.29 434.17 L 323.60 427.33 C322.71,418.58 320.66,410.34 315.80,396.00 C313.66,389.67 311.21,381.80 310.36,378.50 C308.65,371.91 309.01,363.61 311.17,359.68 C311.90,358.35 313.46,355.52 314.64,353.38 C317.87,347.54 326.45,339.47 336.50,332.82 C344.44,327.57 345.91,326.94 349.00,327.48 C356.75,328.84 361.17,329.17 363.51,328.59 C367.14,327.68 373.00,322.14 373.00,319.62 C373.00,315.05 375.76,313.05 389.50,307.64 C391.70,306.77 396.88,305.38 401.00,304.54 C405.12,303.70 410.98,302.34 414.00,301.51 C423.39,298.94 457.71,297.52 476.38,298.93 C493.42,300.22 506.52,302.16 512.78,304.31 C521.39,307.28 535.35,321.26 541.42,333.00 C548.02,345.78 550.11,350.47 551.07,354.71 C551.67,357.34 552.60,360.85 553.13,362.50 C553.66,364.15 554.37,368.60 554.70,372.38 C555.24,378.42 555.07,379.45 553.35,380.88 C550.92,382.90 546.88,388.53 545.03,392.50 C539.93,403.46 536.27,419.57 539.84,415.43 C540.28,414.92 541.94,411.35 543.54,407.50 C547.82,397.15 555.71,385.88 560.22,383.68 C565.16,381.27 573.47,380.50 578.87,381.96 C584.74,383.55 591.90,390.41 595.84,398.24 C599.82,406.15 600.82,417.27 598.68,430.00 C595.46,449.18 587.62,460.15 569.90,470.28 C565.24,472.95 552.38,476.42 549.40,475.83 C547.63,475.47 543.07,464.22 542.98,460.00 C542.95,458.62 542.29,456.38 541.50,455.00 C540.18,452.68 540.07,453.12 540.02,461.00 C539.84,490.77 535.45,511.73 524.80,533.73 C516.63,550.61 506.20,562.70 489.47,574.69 C462.13,594.28 438.59,601.37 412.00,598.01 ZM 488.98 537.83 C493.68,536.27 496.85,534.36 500.60,530.82 C505.49,526.20 513.00,515.46 513.00,513.10 C513.00,510.70 511.02,512.26 507.67,517.32 C501.17,527.10 490.22,532.08 472.00,533.54 C460.48,534.46 453.47,532.61 447.47,527.08 C443.39,523.32 441.00,522.05 441.00,523.65 C441.00,524.00 442.52,526.14 444.39,528.40 C448.06,532.85 457.09,538.76 462.26,540.09 C467.38,541.41 481.86,540.18 488.98,537.83 ZM 571.76 446.75 C575.50,442.77 577.96,435.94 577.96,429.50 C577.97,422.03 576.42,418.78 572.24,417.54 C570.46,417.02 569.00,416.22 569.00,415.77 C569.00,414.08 578.48,409.00 581.64,409.00 C585.54,409.00 586.80,407.50 584.09,406.05 C578.63,403.12 566.38,407.00 561.71,413.14 C558.27,417.67 555.26,425.59 554.01,433.46 C553.00,439.76 553.54,448.00 554.95,448.00 C555.34,448.00 556.51,443.45 557.57,437.88 C559.22,429.23 559.90,427.42 562.32,425.38 C566.35,421.99 569.57,422.27 571.59,426.17 C573.74,430.33 573.02,436.44 569.63,442.94 C568.18,445.70 567.00,448.20 567.00,448.48 C567.00,449.81 569.87,448.77 571.76,446.75 ZM 338.07 419.43 C339.97,417.61 342.40,416.64 346.36,416.10 C349.54,415.67 352.87,414.52 354.05,413.45 C356.11,411.59 356.17,411.61 360.03,415.78 C362.17,418.10 364.82,420.00 365.93,420.00 C367.03,420.00 369.58,418.55 371.59,416.78 L 375.26 413.57 L 374.69 406.14 C374.33,401.34 373.57,398.15 372.56,397.13 C371.13,395.70 371.05,396.25 371.63,403.14 C372.22,410.09 372.08,410.92 370.07,412.93 C368.86,414.14 367.34,414.95 366.69,414.74 C364.79,414.14 362.42,408.51 357.51,393.00 C351.05,372.58 347.46,365.01 342.16,360.61 C338.54,357.60 337.03,357.00 333.16,357.00 C326.36,357.00 322.00,359.59 318.79,365.50 C315.70,371.20 314.47,377.39 315.43,382.49 C316.26,386.90 317.99,387.07 318.04,382.75 C318.11,375.79 320.82,367.59 323.97,364.75 C331.87,357.64 341.84,364.89 348.50,382.59 C350.76,388.59 354.85,403.25 355.31,407.00 C355.46,408.19 353.82,408.60 347.35,409.00 C338.30,409.56 335.81,410.94 333.33,416.79 C330.98,422.34 333.55,423.77 338.07,419.43 ZM 416.95 414.03 C419.50,412.66 422.88,406.61 423.59,402.14 C424.76,394.83 420.74,374.65 416.35,365.79 C411.49,356.00 406.34,354.43 399.98,360.79 C396.12,364.64 393.31,371.77 394.47,374.77 C395.28,376.88 396.41,375.39 397.86,370.30 C399.10,365.92 402.98,362.00 406.08,362.00 C407.93,362.00 413.00,367.75 413.00,369.84 C413.00,370.48 411.73,371.00 410.17,371.00 C407.24,371.00 404.27,373.53 401.96,377.98 C401.16,379.55 400.73,383.83 400.82,389.53 C400.98,399.57 403.52,408.79 407.19,412.70 C409.48,415.13 413.79,415.72 416.95,414.03 ZM 464.67 398.01 C472.34,389.86 481.73,382.60 488.00,379.97 C492.26,378.18 505.65,378.23 510.28,380.05 C514.11,381.55 521.57,388.38 523.61,392.25 C524.40,393.76 525.55,395.00 526.16,395.00 C528.15,395.00 526.28,386.86 523.31,382.58 C519.36,376.90 513.89,374.39 503.55,373.53 C491.03,372.49 484.81,374.78 473.66,384.56 C463.62,393.36 453.55,406.00 456.58,406.00 C456.90,406.00 460.54,402.41 464.67,398.01 ZM 385.12 352.61 C386.55,339.54 395.79,325.28 403.88,323.67 C419.86,320.49 433.01,327.73 436.06,341.40 C437.52,347.90 438.39,349.50 439.94,348.54 C442.46,346.98 438.72,331.78 433.77,323.50 C429.48,316.32 427.16,314.12 422.57,312.87 C413.09,310.30 401.47,312.77 394.82,318.78 C390.38,322.79 384.23,335.08 383.31,341.78 C382.99,344.13 382.33,346.29 381.86,346.59 C380.87,347.20 380.70,355.05 381.62,357.46 C382.83,360.60 384.51,358.28 385.12,352.61 ZM 468.00 355.42 C476.04,349.04 481.82,336.94 480.85,328.50 C480.34,324.13 478.73,325.18 477.45,330.70 C475.92,337.34 471.53,345.57 466.36,351.48 C462.33,356.09 460.92,359.01 462.75,358.99 C463.16,358.98 465.52,357.38 468.00,355.42 ZM 457.96 350.25 C462.46,344.82 465.79,337.32 466.54,330.89 C467.10,326.09 466.82,324.49 464.56,319.71 C461.88,314.06 456.14,308.00 453.47,308.00 C451.39,308.00 451.65,309.38 454.15,311.60 C457.82,314.86 460.09,321.40 460.26,329.26 C460.43,336.50 459.68,338.72 452.22,353.25 C452.01,353.66 452.51,354.00 453.34,354.00 C454.17,354.00 456.25,352.31 457.96,350.25 ZM 466.31 507.09 C462.55,504.75 461.47,502.92 460.55,497.38 C460.01,494.12 460.42,491.92 462.53,486.88 C465.61,479.53 466.43,478.47 472.41,474.18 L 476.80 471.02 L 476.65 479.76 C476.53,486.89 476.77,488.50 477.98,488.50 C478.88,488.50 479.74,487.12 480.16,485.00 C482.38,473.72 484.49,469.41 490.85,463.07 C496.12,457.82 502.65,455.21 505.99,457.00 C508.34,458.25 508.31,457.96 506.91,465.53 C504.73,477.32 496.75,492.97 488.92,500.83 C481.97,507.81 471.92,510.59 466.31,507.09 ZM 285.50 453.90 C280.00,450.52 273.32,446.44 270.65,444.84 C267.99,443.24 261.46,439.09 256.15,435.61 C250.84,432.12 244.32,427.98 241.66,426.39 C239.00,424.80 235.63,422.73 234.16,421.78 C232.70,420.83 230.23,419.35 228.69,418.47 C225.54,416.70 225.57,414.66 228.75,414.19 C231.90,413.73 239.04,417.73 260.75,432.15 C271.61,439.36 284.66,448.02 289.75,451.38 C294.83,454.75 298.84,457.95 298.66,458.50 C297.92,460.76 295.00,459.74 285.50,453.90 ZM 203.42 432.04 C194.46,428.86 186.96,423.19 181.99,415.86 C178.56,410.80 178.23,407.02 180.89,403.21 C181.93,401.72 184.32,398.02 186.21,395.00 C199.17,374.27 203.75,367.68 206.86,365.31 C207.76,364.63 209.54,364.05 210.81,364.03 C212.99,364.00 213.03,364.12 211.56,366.22 C208.64,370.39 209.56,373.70 215.25,379.36 C218.14,382.24 223.12,386.09 226.33,387.91 C231.45,390.83 232.82,391.18 237.61,390.78 C240.60,390.53 242.93,390.59 242.78,390.92 C242.63,391.24 240.25,394.99 237.50,399.25 C234.18,404.40 231.87,407.00 230.62,407.00 C226.12,407.00 220.83,409.43 219.43,412.13 C217.78,415.32 217.53,420.00 219.00,420.00 C220.95,420.00 219.95,423.36 216.45,428.65 C212.45,434.67 211.49,434.92 203.42,432.04 ZM 250.02 391.96 C250.56,390.96 251.00,388.68 251.00,386.90 C251.00,385.12 251.30,383.96 251.66,384.32 C252.02,384.69 252.92,384.48 253.66,383.87 C254.68,383.02 255.00,383.11 255.00,384.25 C255.00,388.42 253.65,391.62 251.44,392.66 C249.27,393.68 249.14,393.62 250.02,391.96 ZM 219.53 374.47 C217.59,372.52 215.97,370.39 215.93,369.72 C215.88,369.05 215.66,367.49 215.43,366.25 C215.20,365.01 215.48,364.00 216.06,364.00 C218.21,364.00 231.16,370.02 234.52,372.58 C238.24,375.42 239.29,377.76 236.07,376.04 C233.33,374.57 229.71,374.75 227.44,376.47 C224.56,378.65 223.42,378.36 219.53,374.47 ZM 352.06 323.56 C348.72,320.01 348.13,313.03 350.85,309.20 C356.49,301.29 369.00,306.68 369.00,317.03 C369.00,319.15 368.06,321.09 366.08,323.08 C362.16,327.00 355.50,327.23 352.06,323.56 Z" fill="rgb(246,218,187)"/>
</g>
</svg>